<?xml version="1.0" encoding="UTF-8" standalone="no"?><!DOCTYPE svg PUBLIC "-//W3C//DTD SVG 1.1//EN" "http://www.w3.org/Graphics/SVG/1.1/DTD/svg11.dtd"><svg width="100%" height="100%" viewBox="0 0 640 480" version="1.1" xmlns="http://www.w3.org/2000/svg" xmlns:xlink="http://www.w3.org/1999/xlink" xml:space="preserve" xmlns:serif="http://www.serif.com/" style="fill-rule:evenodd;clip-rule:evenodd;stroke-linejoin:round;stroke-miterlimit:1.41421;"><rect id="rect740" x="0" y="0" width="640" height="480" style="fill:#fff;"/><rect id="rect2334" x="240" y="0" width="160" height="480" style="fill:#dc171d;"/><rect id="rect727" x="0" y="160" width="640" height="160" style="fill:#012a87;"/><path id="path2864" d="M292.312,313.333l-12.429,-10l-12.364,9.6l4.907,-14.8l-12.426,-10l14.93,0l5.232,-14.8l4.752,14.8l15.086,0l-11.961,10l4.273,15.2Z" style="fill:#fff;"/><path id="use1316" d="M372.309,313.333l-12.43,-10l-12.363,9.6l4.906,-14.8l-12.425,-10l14.93,0l5.232,-14.8l4.752,14.8l15.086,0l-11.962,10l4.274,15.2Z" style="fill:#fff;"/><path id="use1318" d="M292.312,206.659l-12.429,-10l-12.364,9.6l4.907,-14.8l-12.426,-10l14.93,0l5.232,-14.8l4.752,14.8l15.086,0l-11.961,10l4.273,15.2Z" style="fill:#fff;"/><path id="use1320" d="M369.112,206.659l-12.429,-10l-12.364,9.6l4.907,-14.8l-12.426,-10l14.93,0l5.232,-14.8l4.752,14.8l15.086,0l-11.961,10l4.273,15.2Z" style="fill:#fff;"/><path id="use1322" d="M225.592,260l-12.429,-10l-12.364,9.6l4.907,-14.8l-12.426,-10l14.93,0l5.232,-14.8l4.752,14.8l15.086,0l-11.961,10l4.273,15.2Z" style="fill:#fff;"/><path id="use1324" d="M438.981,260.002l-12.43,-10l-12.363,9.6l4.906,-14.8l-12.425,-10l14.93,0l5.232,-14.8l4.752,14.8l15.086,0l-11.962,10l4.274,15.2Z" style="fill:#fff;"/></svg>