<?xml version="1.0" encoding="UTF-8" standalone="no"?><!DOCTYPE svg PUBLIC "-//W3C//DTD SVG 1.1//EN" "http://www.w3.org/Graphics/SVG/1.1/DTD/svg11.dtd"><svg width="100%" height="100%" viewBox="0 0 640 480" version="1.1" xmlns="http://www.w3.org/2000/svg" xmlns:xlink="http://www.w3.org/1999/xlink" xml:space="preserve" xmlns:serif="http://www.serif.com/" style="fill-rule:evenodd;clip-rule:evenodd;stroke-linejoin:round;stroke-miterlimit:1.41421;"><rect x="0" y="0" width="640" height="480" style="fill:#002d82;"/><g><path id="Main1" d="M640,144.397c-14.177,9.215 -23.291,21.885 -51.139,21.885c-48.102,0 -41.519,-33.403 -89.62,-33.403c-48.102,0 -41.519,33.403 -89.621,33.403c-48.101,0 -41.519,-33.403 -89.62,-33.403c-48.101,0 -41.519,33.403 -89.62,33.403c-48.102,0 -41.519,-33.403 -89.621,-33.403c-48.101,0 -41.518,33.403 -89.62,33.403c-28.354,0 -37.468,-12.67 -51.139,-21.885l0,-26.492c13.165,9.215 22.278,20.733 51.139,20.733c48.102,0 41.519,-32.251 89.62,-32.251c48.102,0 41.519,32.251 89.621,32.251c48.101,0 41.519,-32.251 89.62,-32.251c48.101,0 41.519,32.251 89.62,32.251c48.102,0 41.519,-32.251 89.621,-32.251c48.101,0 41.518,32.251 89.62,32.251c28.354,0 37.468,-11.518 51.139,-20.733l0,26.492Z" style="fill:#fff;fill-rule:nonzero;"/><path id="Main11" serif:id="Main1" d="M640,198.534c-14.177,9.215 -23.291,21.885 -51.139,21.885c-48.102,0 -41.519,-33.404 -89.62,-33.404c-48.102,0 -41.519,33.404 -89.621,33.404c-48.101,0 -41.519,-33.404 -89.62,-33.404c-48.101,0 -41.519,33.404 -89.62,33.404c-48.102,0 -41.519,-33.404 -89.621,-33.404c-48.101,0 -41.518,33.404 -89.62,33.404c-28.354,0 -37.468,-12.67 -51.139,-21.885l0,-26.492c13.165,9.214 22.278,20.733 51.139,20.733c48.102,0 41.519,-32.252 89.62,-32.252c48.102,0 41.519,32.252 89.621,32.252c48.101,0 41.519,-32.252 89.62,-32.252c48.101,0 41.519,32.252 89.62,32.252c48.102,0 41.519,-32.252 89.621,-32.252c48.101,0 41.518,32.252 89.62,32.252c28.354,0 37.468,-11.519 51.139,-20.733l0,26.492Z" style="fill:#fff;fill-rule:nonzero;"/><path id="Main2" d="M640,334.451c-14.177,-9.215 -23.291,-21.885 -51.139,-21.885c-48.102,0 -41.519,33.403 -89.62,33.403c-48.102,0 -41.519,-33.403 -89.621,-33.403c-48.101,0 -41.519,33.403 -89.62,33.403c-48.101,0 -41.519,-33.403 -89.62,-33.403c-48.102,0 -41.519,33.403 -89.621,33.403c-48.101,0 -41.518,-33.403 -89.62,-33.403c-28.354,0 -37.468,12.67 -51.139,21.885l0,27.644c13.165,-10.367 22.278,-21.885 51.139,-21.885c48.102,0 41.519,33.403 89.62,33.403c48.102,0 41.519,-33.403 89.621,-33.403c48.101,0 41.519,33.403 89.62,33.403c48.101,0 41.519,-33.403 89.62,-33.403c48.102,0 41.519,33.403 89.621,33.403c48.101,0 41.518,-33.403 89.62,-33.403c28.354,0 37.468,11.518 51.139,21.885l0,-27.644Z" style="fill:#fff;fill-rule:nonzero;"/><path id="Main21" serif:id="Main2" d="M640,280.314c-14.177,-9.214 -23.291,-21.885 -51.139,-21.885c-48.102,0 -41.519,33.404 -89.62,33.404c-48.102,0 -41.519,-33.404 -89.621,-33.404c-48.101,0 -41.519,33.404 -89.62,33.404c-48.101,0 -41.519,-33.404 -89.62,-33.404c-48.102,0 -41.519,33.404 -89.621,33.404c-48.101,0 -41.518,-33.404 -89.62,-33.404c-28.354,0 -37.468,12.671 -51.139,21.885l0,27.644c13.165,-10.366 22.278,-21.884 51.139,-21.884c48.102,0 41.519,33.403 89.62,33.403c48.102,0 41.519,-33.403 89.621,-33.403c48.101,0 41.519,33.403 89.62,33.403c48.101,0 41.519,-33.403 89.62,-33.403c48.102,0 41.519,33.403 89.621,33.403c48.101,0 41.518,-33.403 89.62,-33.403c28.354,0 37.468,11.518 51.139,21.884l0,-27.644Z" style="fill:#fff;fill-rule:nonzero;"/></g><circle cx="320" cy="240" r="81.013" style="fill:#ffa100;"/></svg>