<?xml version="1.0" encoding="UTF-8" standalone="no"?><!DOCTYPE svg PUBLIC "-//W3C//DTD SVG 1.1//EN" "http://www.w3.org/Graphics/SVG/1.1/DTD/svg11.dtd"><svg width="100%" height="100%" viewBox="0 0 640 480" version="1.1" xmlns="http://www.w3.org/2000/svg" xmlns:xlink="http://www.w3.org/1999/xlink" xml:space="preserve" xmlns:serif="http://www.serif.com/" style="fill-rule:evenodd;clip-rule:evenodd;"><rect id="rect6" x="0" y="0" width="640" height="480" style="fill:#ffd700;"/><rect id="rect8" x="0" y="0" width="640" height="320" style="fill:#d00;"/><rect id="rect10" x="0" y="0" width="640" height="160"/><circle id="circle12" cx="212.8" cy="218.4" r="44" style="fill:none;stroke:#fff;stroke-width:9.6px;"/><g id="ri"><circle id="circle14" cx="320" cy="218.4" r="44" style="fill:none;stroke:#fff;stroke-width:9.6px;"/><circle id="circle16" cx="266.4" cy="261.6" r="44" style="fill:none;stroke:#d00;stroke-width:12.8px;"/><circle id="circle18" cx="266.4" cy="261.6" r="44" style="fill:none;stroke:#fff;stroke-width:9.6px;"/></g><g id="pr2"><g id="pr"><path id="path21" d="M239.953,191.247c14.896,14.896 14.896,39.41 0,54.306m7.919,-62.225c19.241,19.24 19.241,50.904 0,70.144" style="fill:none;stroke:#d00;stroke-width:1.6px;"/><path id="path23" d="M243.913,187.287c17.068,17.068 17.068,45.158 0,62.226" style="fill:none;stroke:#fff;stroke-width:9.6px;"/></g><g id="use26"><path id="path211" serif:id="path21" d="M347.153,245.553c-14.896,14.896 -39.41,14.896 -54.306,0m62.225,7.919c-19.24,19.241 -50.904,19.241 -70.144,0" style="fill:none;stroke:#d00;stroke-width:1.6px;"/><path id="path231" serif:id="path23" d="M351.113,249.513c-17.068,17.068 -45.158,17.068 -62.226,0" style="fill:none;stroke:#fff;stroke-width:9.6px;"/></g></g><g id="use29"><circle id="circle141" serif:id="circle14" cx="427.2" cy="218.4" r="44" style="fill:none;stroke:#fff;stroke-width:9.6px;"/><circle id="circle161" serif:id="circle16" cx="373.6" cy="261.6" r="44" style="fill:none;stroke:#d00;stroke-width:12.8px;"/><circle id="circle181" serif:id="circle18" cx="373.6" cy="261.6" r="44" style="fill:none;stroke:#fff;stroke-width:9.6px;"/></g><g id="use31"><g id="pr1" serif:id="pr"><path id="path212" serif:id="path21" d="M347.153,191.247c14.896,14.896 14.896,39.41 0,54.306m7.919,-62.225c19.241,19.24 19.241,50.904 0,70.144" style="fill:none;stroke:#d00;stroke-width:1.6px;"/><path id="path232" serif:id="path23" d="M351.113,187.287c17.068,17.068 17.068,45.158 0,62.226" style="fill:none;stroke:#fff;stroke-width:9.6px;"/></g><g id="use261" serif:id="use26"><path id="path213" serif:id="path21" d="M454.353,245.553c-14.896,14.896 -39.41,14.896 -54.306,0m62.225,7.919c-19.24,19.241 -50.904,19.241 -70.144,0" style="fill:none;stroke:#d00;stroke-width:1.6px;"/><path id="path233" serif:id="path23" d="M458.313,249.513c-17.068,17.068 -45.158,17.068 -62.226,0" style="fill:none;stroke:#fff;stroke-width:9.6px;"/></g></g></svg>