<?xml version="1.0" encoding="UTF-8" standalone="no"?><!DOCTYPE svg PUBLIC "-//W3C//DTD SVG 1.1//EN" "http://www.w3.org/Graphics/SVG/1.1/DTD/svg11.dtd"><svg width="100%" height="100%" viewBox="0 0 640 480" version="1.1" xmlns="http://www.w3.org/2000/svg" xmlns:xlink="http://www.w3.org/1999/xlink" xml:space="preserve" xmlns:serif="http://www.serif.com/" style="fill-rule:evenodd;clip-rule:evenodd;"><rect x="0" y="0" width="640" height="480" style="fill-rule:nonzero;"/><rect x="0" y="160" width="640" height="320" style="fill:#d00;fill-rule:nonzero;"/><rect x="0" y="320" width="640" height="160" style="fill:#ffce00;fill-rule:nonzero;"/><g><g><path d="M405.591,238.665c0,47.479 -38.658,86.548 -85.637,86.548c-46.979,0 -85.637,-39.069 -85.637,-86.548c0,-47.478 38.658,-86.548 85.637,-86.548c46.979,0 85.637,39.07 85.637,86.548Z" style="fill:#d00;fill-rule:nonzero;"/><g><path id="a" d="M324.244,344.045l-26.493,12.523l-2.801,-2.1l24.871,-11.725l4.423,1.302Z" style="fill:#ffc709;fill-rule:nonzero;stroke:#000;stroke-width:0.94px;"/><path id="a1" serif:id="a" d="M327.048,346.146l-26.494,12.523l-2.8,-2.101l24.871,-11.724l4.423,1.302Z" style="fill:#ffc709;fill-rule:nonzero;stroke:#000;stroke-width:0.94px;"/><path id="a2" serif:id="a" d="M329.849,348.237l-26.494,12.523l-2.8,-2.101l24.871,-11.725l4.423,1.303Z" style="fill:#ffc709;fill-rule:nonzero;stroke:#000;stroke-width:0.94px;"/><path id="a3" serif:id="a" d="M332.644,350.335l-26.494,12.523l-2.8,-2.101l24.871,-11.725l4.423,1.303Z" style="fill:#ffc709;fill-rule:nonzero;stroke:#000;stroke-width:0.94px;"/><path id="a4" serif:id="a" d="M335.443,352.431l-26.494,12.523l-2.8,-2.101l24.871,-11.724l4.423,1.302Z" style="fill:#ffc709;fill-rule:nonzero;stroke:#000;stroke-width:0.94px;"/><path id="a5" serif:id="a" d="M315.457,344.029l26.494,12.523l2.8,-2.101l-24.871,-11.725l-4.423,1.303Z" style="fill:#ffc709;fill-rule:nonzero;stroke:#000;stroke-width:0.94px;"/><path id="a6" serif:id="a" d="M312.622,346.136l26.494,12.523l2.8,-2.101l-24.871,-11.725l-4.423,1.303Z" style="fill:#ffc709;fill-rule:nonzero;stroke:#000;stroke-width:0.94px;"/><path id="a7" serif:id="a" d="M309.788,348.242l26.493,12.524l2.8,-2.101l-24.87,-11.725l-4.423,1.302Z" style="fill:#ffc709;fill-rule:nonzero;stroke:#000;stroke-width:0.94px;"/><path id="a8" serif:id="a" d="M306.982,350.328l26.494,12.524l2.8,-2.101l-24.871,-11.725l-4.423,1.302Z" style="fill:#ffc709;fill-rule:nonzero;stroke:#000;stroke-width:0.94px;"/><path id="a9" serif:id="a" d="M304.193,352.406l26.494,12.523l2.8,-2.101l-24.871,-11.725l-4.423,1.303Z" style="fill:#ffc709;fill-rule:nonzero;stroke:#000;stroke-width:0.94px;"/></g><g><path d="M321.153,166.635l-37.667,2.022l0,22.185l37.667,2.024l4.08,0l31.407,-4.612l0,-7.462l0,-2.084l0,-7.461l-31.407,-4.612l-4.08,0Z" style="fill-rule:nonzero;stroke:#000;stroke-width:1.89px;stroke-linejoin:round;"/><path d="M329.635,214.244c0,-5.405 -4.389,-9.794 -9.794,-9.794c-5.405,0 -9.794,4.389 -9.794,9.794l0,91.316c0,5.405 4.389,9.794 9.794,9.794c5.405,0 9.794,-4.389 9.794,-9.794l0,-91.316Z" style="fill:#ffc709;stroke:#000;stroke-width:2.08px;stroke-linejoin:round;"/><path d="M364.15,239.938c-11.133,11.492 -26.716,18.649 -43.969,18.649c-12.335,0 -23.813,-3.666 -33.427,-9.947l-7.834,11.578c11.849,7.797 26.024,12.347 41.261,12.347c21.146,0 40.254,-8.755 53.922,-22.818l-9.953,-9.809Z" style="fill:#ffc709;fill-rule:nonzero;stroke:#000;stroke-width:2.08px;"/><path d="M312.808,190.347l-53.951,99.631l61.075,-78.8l61.077,78.8l-53.945,-99.631l-7.128,10.007l-7.128,-10.007Z" style="fill:#ffc709;fill-rule:nonzero;stroke:#000;stroke-width:2.08px;"/><path d="M321.088,167.686l-25.875,1.241l-10.744,4.312l0,13.021l10.604,4.312l26.015,1.381l3.965,0l30.533,-4.478l0,-6.69l0,-1.929l0,-6.902l-30.533,-4.268l-3.965,0Z" style="fill:#ffc709;fill-rule:nonzero;"/><path d="M328.8,196.349c0,-4.949 -4.017,-8.966 -8.966,-8.966c-4.948,0 -8.966,4.017 -8.966,8.966l0,0.441c0,4.948 4.018,8.966 8.966,8.966c4.949,0 8.966,-4.018 8.966,-8.966l0,-0.441Z" style="fill:#ffc709;stroke:#000;stroke-width:2.67px;stroke-linejoin:round;"/><path d="M323.645,196.42c0,2.083 -1.715,3.798 -3.798,3.798c-2.084,0 -3.799,-1.715 -3.799,-3.798c0,0 0,0 0,0c0,-2.083 1.715,-3.797 3.799,-3.797c2.083,0 3.798,1.714 3.798,3.797c0,0 0,0 0,0Z" style="fill:#ffc709;fill-rule:nonzero;stroke:#000;stroke-width:0.9px;stroke-linejoin:round;"/></g><g id="b"><path d="M250.103,330.432l-33.902,-37.905l-13.306,-47.562l4.738,-43.919l21.692,-42.098l33.538,-25.876l20.049,-7.472l5.652,8.201l9.842,2.915l-5.65,4.738l-0.729,12.211l-34.268,22.414l-20.78,34.624l-2.004,38.999l10.39,33.897l39.735,37.905l-34.997,8.928Z" style="fill:#ffc709;fill-rule:nonzero;"/><g><path id="c" d="M208.159,275.83c0,0 1.475,4.329 4.876,9.502c3.763,5.375 6.397,5.051 6.397,5.051c0,0 4.039,0.599 4.502,-2.555c0.108,-3.143 -2.052,-4.203 -2.054,-4.274c0.002,0.071 -2.374,-1.623 -5.411,-2.866c-2.624,-1.609 -2.458,-1.58 -4.012,-3.583c-0.997,-2.305 -0.66,-0.688 -3.225,-9.744c-2.564,-9.055 -3.675,-14.106 -3.745,-14.104l-3.222,0.742l3.375,13.198l1.177,4.496l1.342,4.137Z" style="fill:#ffc709;fill-rule:nonzero;stroke:#000;stroke-width:0.94px;stroke-linejoin:round;"/><path id="d" d="M206.345,244.933l7.012,23.453c0,0 0.831,2.547 1.336,5.158c0.026,3.123 -0.528,4.37 -0.528,4.37c-0.071,0.002 -0.333,1.665 -0.484,3.37c-0.058,2.338 0.984,3.927 0.982,3.856c0.002,0.071 0.798,1.222 3.094,1.352c2.637,-0.166 2.969,-2.066 2.969,-2.066c0,0 0.4,-0.203 0.196,-2.839c-0.205,-2.635 -1.675,-6.735 -1.675,-6.735l-10.016,-31.654l-2.886,1.735Z" style="fill:#ffc709;fill-rule:nonzero;stroke:#000;stroke-width:0.94px;stroke-linejoin:round;"/><path id="d1" serif:id="d" d="M202.048,239.175l6.162,23.691c0,0 0.738,2.575 1.149,5.202c-0.086,3.123 -0.685,4.348 -0.685,4.348c-0.071,0 -0.393,1.653 -0.606,3.35c-0.142,2.335 0.843,3.961 0.843,3.89c0,0.071 0.753,1.249 3.043,1.462c2.642,-0.071 3.042,-1.957 3.042,-1.957c0,0 0.407,-0.189 0.298,-2.83c-0.11,-2.641 -1.431,-6.791 -1.431,-6.791l-8.868,-31.995l-2.947,1.63Z" style="fill:#ffc709;fill-rule:nonzero;stroke:#000;stroke-width:0.94px;stroke-linejoin:round;"/><path id="c1" serif:id="c" d="M204.216,273.961c0,0 1.418,4.347 4.752,9.564c3.693,5.424 6.331,5.134 6.331,5.134c0,0 4.03,0.652 4.535,-2.497c0.149,-3.141 -1.997,-4.229 -1.999,-4.3c0.002,0.071 -2.352,-1.654 -5.373,-2.935c-2.603,-1.644 -2.437,-1.612 -3.965,-3.636c-0.967,-2.317 -0.651,-0.697 -3.097,-9.785c-2.447,-9.088 -3.492,-14.152 -3.562,-14.151l-3.231,0.7l3.203,13.241l1.118,4.51l1.288,4.155Z" style="fill:#ffc709;fill-rule:nonzero;stroke:#000;stroke-width:0.94px;stroke-linejoin:round;"/><path id="c2" serif:id="c" d="M216.523,259.911c0,0 1.179,4.321 4.038,9.539c3.174,5.429 5.516,5.195 5.516,5.195c0,0 3.558,0.724 4.061,-2.375c0.188,-3.099 -1.693,-4.216 -1.693,-4.286c0,0.07 -2.054,-1.68 -4.707,-3.006c-2.275,-1.674 -2.13,-1.64 -3.446,-3.669c-0.816,-2.307 -0.565,-0.7 -2.569,-9.723c-2.004,-9.023 -2.839,-14.045 -2.902,-14.045l-2.874,0.627l2.6,13.139l0.91,4.476l1.066,4.128Z" style="fill:#ffc709;fill-rule:nonzero;stroke:#000;stroke-width:0.89px;stroke-linejoin:round;"/><path id="c3" serif:id="c" d="M219.879,260.473c0,0 1.331,4.375 4.56,9.657c3.584,5.497 6.227,5.26 6.227,5.26c0,0 4.017,0.732 4.584,-2.406c0.212,-3.138 -1.912,-4.268 -1.912,-4.339c0,0.071 -2.319,-1.701 -5.314,-3.043c-2.569,-1.694 -2.404,-1.66 -3.891,-3.714c-0.921,-2.336 -0.637,-0.709 -2.901,-9.844c-2.265,-9.135 -3.208,-14.22 -3.279,-14.22l-3.244,0.636l2.937,13.302l1.028,4.532l1.205,4.179Z" style="fill:#ffc709;fill-rule:nonzero;stroke:#000;stroke-width:0.94px;stroke-linejoin:round;"/><path id="d2" serif:id="d" d="M216.389,235.972l6.162,23.692c0,0 0.738,2.574 1.148,5.202c-0.086,3.122 -0.685,4.348 -0.685,4.348c-0.071,0 -0.392,1.652 -0.605,3.35c-0.142,2.335 0.842,3.96 0.842,3.89c0,0.07 0.753,1.249 3.043,1.462c2.642,-0.071 3.042,-1.958 3.042,-1.958c0,0 0.407,-0.188 0.299,-2.829c-0.11,-2.641 -1.431,-6.792 -1.431,-6.792l-8.869,-31.995l-2.946,1.63Z" style="fill:#ffc709;fill-rule:nonzero;stroke:#000;stroke-width:0.94px;stroke-linejoin:round;"/><path id="d3" serif:id="d" d="M227.955,243.256l7.593,23.272c0,0 0.894,2.525 1.463,5.123c0.105,3.122 -0.419,4.381 -0.419,4.381c-0.071,0.005 -0.291,1.674 -0.4,3.381c0.001,2.339 1.082,3.902 1.078,3.831c0.004,0.071 0.828,1.202 3.126,1.275c2.633,-0.232 2.917,-2.139 2.917,-2.139c0,0 0.395,-0.213 0.126,-2.843c-0.271,-2.629 -1.842,-6.692 -1.842,-6.692l-10.8,-31.395l-2.842,1.806Z" style="fill:#ffc709;fill-rule:nonzero;stroke:#000;stroke-width:0.94px;stroke-linejoin:round;"/><path id="c4" serif:id="c" d="M232.005,273.979c0,0 1.463,4.333 4.85,9.515c3.748,5.386 6.383,5.069 6.383,5.069c0,0 4.037,0.61 4.51,-2.544c0.116,-3.142 -2.041,-4.208 -2.043,-4.279c0.002,0.071 -2.369,-1.63 -5.404,-2.88c-2.619,-1.616 -2.453,-1.587 -4.002,-3.595c-0.991,-2.307 -0.658,-0.689 -3.198,-9.752c-2.539,-9.062 -3.636,-14.116 -3.707,-14.114l-3.224,0.734l3.339,13.207l1.165,4.499l1.331,4.14Z" style="fill:#ffc709;fill-rule:nonzero;stroke:#000;stroke-width:0.94px;stroke-linejoin:round;"/><path id="c5" serif:id="c" d="M215.022,265.944c0,0 1.331,4.375 4.56,9.657c3.584,5.496 6.227,5.259 6.227,5.259c0,0 4.017,0.732 4.584,-2.405c0.211,-3.138 -1.912,-4.268 -1.912,-4.339c0,0.071 -2.319,-1.701 -5.314,-3.043c-2.569,-1.694 -2.405,-1.66 -3.891,-3.714c-0.921,-2.336 -0.637,-0.709 -2.902,-9.844c-2.264,-9.135 -3.207,-14.22 -3.278,-14.22l-3.244,0.635l2.937,13.303l1.028,4.532l1.205,4.179Z" style="fill:#ffc709;fill-rule:nonzero;stroke:#000;stroke-width:0.94px;stroke-linejoin:round;"/><path id="c6" serif:id="c" d="M211.413,263.424c0,0 1.331,4.375 4.56,9.657c3.584,5.497 6.227,5.26 6.227,5.26c0,0 4.017,0.732 4.584,-2.406c0.211,-3.138 -1.912,-4.268 -1.912,-4.339c0,0.071 -2.319,-1.701 -5.314,-3.042c-2.569,-1.695 -2.405,-1.661 -3.891,-3.715c-0.921,-2.336 -0.637,-0.709 -2.902,-9.844c-2.264,-9.135 -3.207,-14.22 -3.278,-14.22l-3.244,0.636l2.937,13.302l1.028,4.532l1.205,4.179Z" style="fill:#ffc709;fill-rule:nonzero;stroke:#000;stroke-width:0.94px;stroke-linejoin:round;"/><path id="d4" serif:id="d" d="M220.197,238.213l6.161,23.691c0,0 0.739,2.575 1.149,5.202c-0.086,3.123 -0.685,4.348 -0.685,4.348c-0.071,0 -0.393,1.653 -0.605,3.351c-0.142,2.334 0.842,3.96 0.842,3.889c0,0.071 0.753,1.249 3.043,1.462c2.642,-0.071 3.042,-1.957 3.042,-1.957c0,0 0.407,-0.189 0.299,-2.83c-0.111,-2.641 -1.431,-6.791 -1.431,-6.791l-8.869,-31.995l-2.946,1.63Z" style="fill:#ffc709;fill-rule:nonzero;stroke:#000;stroke-width:0.94px;stroke-linejoin:round;"/><path id="c7" serif:id="c" d="M236.116,275.148c0,0 1.652,4.265 5.264,9.293c3.982,5.215 6.6,4.783 6.6,4.783c0,0 4.06,0.432 4.393,-2.739c-0.022,-3.145 -2.224,-4.114 -2.229,-4.185c0.005,0.071 -2.438,-1.524 -5.525,-2.64c-2.687,-1.5 -2.521,-1.477 -4.156,-3.416c-1.091,-2.261 -0.688,-0.66 -3.624,-9.602c-2.935,-8.942 -4.253,-13.942 -4.324,-13.937l-3.188,0.874l3.916,13.048l1.362,4.443l1.511,4.078Z" style="fill:#ffc709;fill-rule:nonzero;stroke:#000;stroke-width:0.94px;stroke-linejoin:round;"/><path d="M232.483,247.896l8.468,22.627c0,0 0.987,2.448 1.654,4.995c0.224,3.109 -0.25,4.41 -0.25,4.41c-0.071,0.009 -0.228,1.692 -0.272,3.407c0.091,2.336 1.229,3.809 1.221,3.739c0.008,0.07 0.874,1.132 3.17,1.021c2.621,-0.443 2.832,-2.37 2.832,-2.37c0,0 0.388,-2.51 -0.337,-4.973c-0.582,-3.098 -6.13,-13.259 -8.326,-20.129l-4.894,-14.97l-3.266,2.243Z" style="fill:#ffc709;fill-rule:nonzero;stroke:#000;stroke-width:0.94px;stroke-linejoin:round;"/></g><g><path id="e" d="M229.027,160.991c0,0 -3.182,3.599 -7.577,10.899c-4.252,7.16 -4.433,7.453 -6.415,12.829c-1.416,5.235 -1.43,7.004 -0.448,9.927c1.265,2.357 2.502,2.854 3.656,2.901c1.153,0.047 1.746,-0.269 2.593,-1.571c1.698,-3.853 -0.442,-5.787 -1.084,-8.994c-0.641,-3.207 -0.376,-0.741 -0.377,-3.116c0.353,-3.154 1.343,-3.98 1.769,-4.831c0.637,-1.203 1.087,-2.11 4.646,-7.421c3.702,-5.665 5.472,-8.779 5.472,-8.779c0,0 0.391,-1.266 -0.465,-1.886c-0.819,-0.595 -1.77,0.042 -1.77,0.042Z" style="fill:#ffc709;fill-rule:nonzero;stroke:#000;stroke-width:0.94px;"/><path id="e1" serif:id="e" d="M226.661,159.859c0,0 -3.182,3.6 -7.576,10.9c-4.252,7.159 -4.433,7.452 -6.415,12.828c-1.416,5.235 -1.43,7.004 -0.449,9.927c1.265,2.358 2.503,2.854 3.656,2.901c1.154,0.047 1.747,-0.269 2.594,-1.571c1.698,-3.853 -0.443,-5.786 -1.084,-8.994c-0.642,-3.207 -0.376,-0.741 -0.377,-3.116c0.353,-3.154 1.343,-3.98 1.769,-4.831c0.637,-1.203 1.087,-2.11 4.646,-7.421c3.701,-5.665 5.472,-8.779 5.472,-8.779c0,0 0.391,-1.266 -0.465,-1.886c-0.82,-0.595 -1.771,0.042 -1.771,0.042Z" style="fill:#ffc709;fill-rule:nonzero;stroke:#000;stroke-width:0.94px;"/><path id="e2" serif:id="e" d="M246.353,154.152c0,0 -3.623,3.156 -8.927,9.824c-5.146,6.547 -5.364,6.814 -8.027,11.887c-2.084,5.008 -2.327,6.76 -1.733,9.786c0.948,2.501 2.111,3.154 3.248,3.35c1.137,0.196 1.767,-0.039 2.775,-1.221c2.184,-3.6 0.313,-5.795 0.093,-9.058c-0.219,-3.263 -0.276,-0.783 0.031,-3.139c0.76,-3.082 1.849,-3.772 2.381,-4.56c0.788,-1.11 1.352,-1.951 5.571,-6.755c4.405,-5.138 6.565,-7.995 6.565,-7.995c0,0 0.552,-1.205 -0.216,-1.931c-0.736,-0.696 -1.761,-0.188 -1.761,-0.188Z" style="fill:#ffc709;fill-rule:nonzero;stroke:#000;stroke-width:0.94px;"/><path id="f" d="M235.228,154.163c0,0 -5.659,9.254 -7.708,12.798c-2.498,3.897 -4.78,9.406 -6.953,12.325c-2.626,2.772 -5.245,3.231 -7.081,5.003c-2.107,1.886 -2.495,2.8 -2.595,4.388c0.054,2.138 2.152,3.687 4.258,2.994c2.097,-0.26 4.423,-3.628 4.423,-3.628c0,0 2.998,-5.683 5.067,-9.596c4.499,-9.282 13.506,-22.971 13.506,-22.971l-2.917,-1.313Z" style="fill:#ffc709;fill-rule:nonzero;stroke:#000;stroke-width:0.94px;"/><path id="e3" serif:id="e" d="M223.738,159.958c0,0 -3.182,3.599 -7.576,10.899c-4.253,7.16 -4.434,7.453 -6.416,12.828c-1.416,5.236 -1.429,7.005 -0.448,9.928c1.265,2.357 2.503,2.854 3.656,2.901c1.153,0.046 1.746,-0.269 2.593,-1.571c1.699,-3.853 -0.442,-5.787 -1.084,-8.994c-0.641,-3.207 -0.375,-0.741 -0.377,-3.116c0.353,-3.154 1.344,-3.98 1.769,-4.831c0.637,-1.203 1.087,-2.11 4.647,-7.421c3.701,-5.665 5.472,-8.779 5.472,-8.779c0,0 0.39,-1.266 -0.465,-1.886c-0.82,-0.595 -1.771,0.042 -1.771,0.042Z" style="fill:#ffc709;fill-rule:nonzero;stroke:#000;stroke-width:0.94px;"/><path id="f1" serif:id="f" d="M252.622,155.406c0,0 -6.951,8.327 -9.496,11.535c-3.04,3.49 -6.103,8.606 -8.68,11.177c-3.002,2.358 -5.66,2.429 -7.736,3.914c-2.359,1.558 -2.877,2.406 -3.208,3.962c-0.259,2.124 1.59,3.962 3.774,3.584c2.113,0.049 4.906,-2.942 4.906,-2.942c0,0 3.796,-5.185 6.415,-8.754c5.807,-8.525 16.718,-20.751 16.718,-20.751l-2.693,-1.725Z" style="fill:#ffc709;fill-rule:nonzero;stroke:#000;stroke-width:0.94px;"/><path id="e4" serif:id="e" d="M248.635,156.015c0,0 -3.581,3.202 -8.799,9.938c-5.061,6.613 -5.275,6.883 -7.872,11.99c-2.019,5.034 -2.24,6.789 -1.607,9.807c0.98,2.489 2.151,3.127 3.291,3.308c1.14,0.182 1.766,-0.062 2.76,-1.257c2.137,-3.628 0.237,-5.798 -0.025,-9.058c-0.261,-3.26 -0.286,-0.78 -0.01,-3.139c0.72,-3.092 1.8,-3.796 2.323,-4.591c0.773,-1.12 1.326,-1.968 5.482,-6.826c4.339,-5.194 6.462,-8.079 6.462,-8.079c0,0 0.536,-1.212 -0.241,-1.928c-0.745,-0.687 -1.764,-0.165 -1.764,-0.165Z" style="fill:#ffc709;fill-rule:nonzero;stroke:#000;stroke-width:0.94px;"/><path id="f2" serif:id="f" d="M255.274,156.615c0,0 -6.951,8.328 -9.496,11.535c-3.04,3.49 -6.103,8.607 -8.68,11.177c-3.002,2.359 -5.66,2.43 -7.736,3.915c-2.359,1.557 -2.877,2.405 -3.208,3.961c-0.259,2.124 1.59,3.962 3.774,3.585c2.114,0.048 4.906,-2.943 4.906,-2.943c0,0 3.797,-5.184 6.416,-8.754c5.807,-8.525 16.717,-20.751 16.717,-20.751l-2.693,-1.725Z" style="fill:#ffc709;fill-rule:nonzero;stroke:#000;stroke-width:0.94px;"/><path id="e5" serif:id="e" d="M242.89,152.65c0,0 -3.594,3.188 -8.839,9.903c-5.088,6.593 -5.303,6.862 -7.921,11.958c-2.039,5.026 -2.266,6.78 -1.646,9.801c0.97,2.493 2.139,3.135 3.278,3.321c1.139,0.186 1.766,-0.055 2.765,-1.246c2.151,-3.619 0.261,-5.797 0.012,-9.058c-0.249,-3.261 -0.284,-0.781 0.002,-3.139c0.733,-3.089 1.816,-3.788 2.341,-4.582c0.778,-1.117 1.334,-1.963 5.51,-6.804c4.36,-5.176 6.494,-8.053 6.494,-8.053c0,0 0.542,-1.209 -0.233,-1.928c-0.742,-0.69 -1.763,-0.173 -1.763,-0.173Z" style="fill:#ffc709;fill-rule:nonzero;stroke:#000;stroke-width:0.94px;"/><path id="f3" serif:id="f" d="M256.037,160.454c0,0 -6.951,8.328 -9.496,11.535c-3.041,3.491 -6.103,8.607 -8.68,11.177c-3.002,2.359 -5.661,2.43 -7.736,3.915c-2.36,1.558 -2.877,2.406 -3.208,3.962c-0.26,2.123 1.589,3.961 3.774,3.584c2.113,0.048 4.906,-2.943 4.906,-2.943c0,0 3.796,-5.184 6.415,-8.753c5.807,-8.526 16.718,-20.752 16.718,-20.752l-2.693,-1.725Z" style="fill:#ffc709;fill-rule:nonzero;stroke:#000;stroke-width:0.94px;"/><path id="f4" serif:id="f" d="M253.918,167.21c0,0 -7.247,9.027 -9.892,12.497c-3.178,3.79 -6.295,9.283 -9.008,12.088c-3.196,2.602 -6.131,2.792 -8.348,4.438c-2.527,1.734 -3.054,2.645 -3.338,4.29c-0.175,2.236 1.966,4.081 4.361,3.59c2.34,-0.041 5.27,-3.296 5.27,-3.296c0,0 3.924,-5.597 6.632,-9.45c5.972,-9.184 17.391,-22.467 17.391,-22.467l-3.068,-1.69Z" style="fill:#ffc709;fill-rule:nonzero;stroke:#000;stroke-width:1.02px;"/><path id="g" d="M256.11,174.652c0,0 -1.005,1.213 -9.492,12.106c-7.762,11.926 -8.941,14.171 -8.941,14.171c0,0 -1.251,2.303 -2.516,2.993c-1.265,0.691 -3.421,0.615 -4.069,0.121c-0.618,-0.472 -0.964,-0.546 -1.175,-2.848c0.236,-1.357 0.631,-1.898 1.196,-2.407c1.148,-0.87 1.735,-1.015 3.146,-1.463c1.393,-0.723 1.929,-1.419 2.877,-2.709c1.878,-2.957 2.716,-4.404 5.868,-8.712c4.088,-5.695 7.301,-9.165 11.034,-13.627l2.072,2.375Z" style="fill:#ffc709;fill-rule:nonzero;stroke:#000;stroke-width:0.94px;"/><path id="f5" serif:id="f" d="M256.493,172.606c0,0 -6.631,9.128 -9.036,12.627c-2.922,3.843 -5.637,9.3 -8.169,12.171c-3.04,2.715 -6.021,3.117 -8.143,4.85c-2.432,1.839 -2.894,2.745 -3.043,4.33c0.011,2.139 2.353,3.731 4.757,3.084c2.384,-0.217 5.098,-3.532 5.098,-3.532c0,0 3.531,-5.617 5.968,-9.484c5.315,-9.182 15.843,-22.672 15.843,-22.672l-3.275,-1.374Z" style="fill:#ffc709;fill-rule:nonzero;stroke:#000;stroke-width:1.02px;"/><path id="g1" serif:id="g" d="M261.704,175.821c0,0 -0.941,1.263 -8.854,12.581c-7.135,12.31 -8.196,14.613 -8.196,14.613c0,0 -1.131,2.365 -2.358,3.12c-1.227,0.754 -3.384,0.791 -4.058,0.33c-0.641,-0.439 -0.99,-0.495 -1.321,-2.783c0.167,-1.367 0.533,-1.928 1.071,-2.466c1.102,-0.928 1.68,-1.103 3.066,-1.624c1.354,-0.793 1.853,-1.516 2.733,-2.854c1.723,-3.05 2.485,-4.538 5.41,-9.003c3.788,-5.898 6.817,-9.529 10.315,-14.179l2.192,2.265Z" style="fill:#ffc709;fill-rule:nonzero;stroke:#000;stroke-width:0.94px;"/></g><g><path d="M307.436,114.958c-10.875,1.146 -21.333,3.698 -31.176,7.495l0.839,1.683c9.835,-3.772 20.166,-6.236 30.639,-7.349c0.912,-0.102 0.709,-1.928 -0.302,-1.829Z" style="fill:#ffc709;fill-rule:nonzero;stroke:#000;stroke-width:0.78px;stroke-linecap:round;stroke-linejoin:round;"/><path d="M313.723,117.863c-9.987,0.518 -18.037,2.041 -26.355,4.471c-3.233,0.928 -6.421,2.001 -9.561,3.207l0.853,1.708c11.267,-4.285 23.192,-6.824 35.229,-7.508c1.11,-0.121 0.953,-1.859 -0.166,-1.878Z" style="fill:#ffc709;fill-rule:nonzero;stroke:#000;stroke-width:0.75px;stroke-linecap:round;stroke-linejoin:round;"/><path d="M309.101,121.665c-10.156,1.032 -20.188,3.367 -29.738,6.98l0.717,1.434c9.406,-3.539 19.285,-5.823 29.28,-6.849c0.926,-0.066 0.739,-1.651 -0.259,-1.565Z" style="fill:#ffc709;fill-rule:nonzero;stroke:#000;stroke-width:0.75px;stroke-linecap:round;stroke-linejoin:round;"/><path d="M280.647,131.211l0.848,1.693c13.429,-4.888 25.397,-6.761 35.686,-7.066c1.068,-0.065 1.071,-1.802 -0.142,-1.867c-11.686,0.405 -25.131,3.014 -36.392,7.24Z" style="fill:#ffc709;fill-rule:nonzero;stroke:#000;stroke-width:0.75px;stroke-linecap:round;stroke-linejoin:round;"/><path d="M311.592,127.649c-8.947,0.74 -19.013,2.843 -29.389,6.669l0.868,1.731c8.923,-3.303 20.878,-5.954 28.845,-6.541c1.108,-0.164 0.847,-1.948 -0.324,-1.859Z" style="fill:#ffc709;fill-rule:nonzero;stroke:#000;stroke-width:0.75px;stroke-linecap:round;stroke-linejoin:round;"/><path d="M283.921,137.738l0.844,1.687c9.082,-3.334 23.998,-6.488 32.656,-6.343c0.936,-0.072 0.859,-1.817 -0.08,-1.891c-10.859,-0.006 -22.212,2.481 -33.42,6.547Z" style="fill:#ffc709;fill-rule:nonzero;stroke:#000;stroke-width:0.75px;stroke-linecap:round;stroke-linejoin:round;"/><path d="M310.601,135.219c-8.513,0.974 -16.927,2.954 -24.988,5.9l0.845,1.684c7.588,-2.741 15.968,-4.855 24.359,-5.693c1.244,-0.175 1.07,-1.969 -0.216,-1.891Z" style="fill:#ffc709;fill-rule:nonzero;stroke:#000;stroke-width:0.75px;stroke-linecap:round;stroke-linejoin:round;"/><path d="M287.297,144.481l0.85,1.689c7.433,-2.665 19.179,-5.151 27.172,-5.565c1.16,-0.132 1.006,-1.885 -0.162,-1.915c-9.356,0.355 -19.551,2.878 -27.86,5.791Z" style="fill:#ffc709;fill-rule:nonzero;stroke:#000;stroke-width:0.75px;stroke-linecap:round;stroke-linejoin:round;"/><path d="M316.002,142.765c-6.93,0.053 -19.071,2.605 -26.864,5.382l0.848,1.692c7.449,-2.635 19.723,-5.061 26.105,-5.212c1.287,-0.013 1.258,-1.848 -0.089,-1.862Z" style="fill:#ffc709;fill-rule:nonzero;stroke:#000;stroke-width:0.75px;stroke-linecap:round;stroke-linejoin:round;"/><path d="M310.091,147.146c-6.498,0.925 -12.92,2.483 -19.119,4.665l0.845,1.683c5.919,-2.145 12.515,-3.728 18.665,-4.532c1.187,-0.251 0.904,-2.071 -0.391,-1.816Z" style="fill:#ffc709;fill-rule:nonzero;stroke:#000;stroke-width:0.75px;stroke-linecap:round;stroke-linejoin:round;"/><path d="M315.761,150.249c-7.158,0.257 -16.505,2.361 -23.213,4.707l0.849,1.694c6.254,-2.158 15.182,-4.253 22.393,-4.514c1.307,-0.071 1.197,-1.967 -0.029,-1.887Z" style="fill:#ffc709;fill-rule:nonzero;stroke:#000;stroke-width:0.75px;stroke-linecap:round;stroke-linejoin:round;"/><path id="h" d="M302.618,145.107c0,0 -14.979,-3.164 -14.05,5.224c3.868,6.918 14.05,-5.224 14.05,-5.224Z" style="fill:#ffc709;fill-rule:nonzero;stroke:#000;stroke-width:0.92px;stroke-linejoin:round;"/><path id="h1" serif:id="h" d="M299.382,154.696c0,0 -12.149,7.865 -14.274,0.126c0.993,-7.432 14.274,-0.126 14.274,-0.126Z" style="fill:#ffc709;fill-rule:nonzero;stroke:#000;stroke-width:0.87px;stroke-linejoin:round;"/><path id="h2" serif:id="h" d="M290.19,144.483c0,0 -14.026,3.442 -9.704,10.36c6.193,4.423 9.704,-10.36 9.704,-10.36Z" style="fill:#ffc709;fill-rule:nonzero;stroke:#000;stroke-width:0.87px;stroke-linejoin:round;"/><path id="h3" serif:id="h" d="M290.459,158.708c0,0 -12.03,6.869 -13.489,-0.788c1.465,-7.16 13.489,0.788 13.489,0.788Z" style="fill:#ffc709;fill-rule:nonzero;stroke:#000;stroke-width:0.83px;stroke-linejoin:round;"/><path id="h4" serif:id="h" d="M280.995,147.535c0,0 -13.315,5.018 -8.264,11.217c6.585,3.553 8.264,-11.217 8.264,-11.217Z" style="fill:#ffc709;fill-rule:nonzero;stroke:#000;stroke-width:0.85px;stroke-linejoin:round;"/><path id="h5" serif:id="h" d="M282.883,162.501c0,0 -11.401,6.973 -12.659,-0.676c1.479,-7.177 12.659,0.676 12.659,0.676Z" style="fill:#ffc709;fill-rule:nonzero;stroke:#000;stroke-width:0.77px;stroke-linejoin:round;"/><path id="h6" serif:id="h" d="M272.254,151.489c0,0 -11.91,7.313 -5.717,12.095c7.138,2.012 5.717,-12.095 5.717,-12.095Z" style="fill:#ffc709;fill-rule:nonzero;stroke:#000;stroke-width:0.82px;stroke-linejoin:round;"/><path id="h7" serif:id="h" d="M276.869,165.647c0,0 -10.893,8.833 -13.533,1.449c0.343,-7.372 13.533,-1.449 13.533,-1.449Z" style="fill:#ffc709;fill-rule:nonzero;stroke:#000;stroke-width:0.83px;stroke-linejoin:round;"/><path id="h8" serif:id="h" d="M270.476,169.745c0,0 -9.165,9.458 -12.529,2.912c-0.563,-6.881 12.529,-2.912 12.529,-2.912Z" style="fill:#ffc709;fill-rule:nonzero;stroke:#000;stroke-width:0.79px;stroke-linejoin:round;"/><path id="h9" serif:id="h" d="M265.025,157.007c0,0 -11.619,7.302 -5.454,11.893c7.055,1.872 5.454,-11.893 5.454,-11.893Z" style="fill:#ffc709;fill-rule:nonzero;stroke:#000;stroke-width:0.8px;stroke-linejoin:round;"/><path id="h10" serif:id="h" d="M257.819,162.016c0,0 -10.57,8.674 -3.897,12.572c7.212,1.065 3.897,-12.572 3.897,-12.572Z" style="fill:#ffc709;fill-rule:nonzero;stroke:#000;stroke-width:0.8px;stroke-linejoin:round;"/><path id="h11" serif:id="h" d="M264.336,175.166c0,0 -9.173,10.237 -12.584,3.011c-0.596,-7.553 12.584,-3.011 12.584,-3.011Z" style="fill:#ffc709;fill-rule:nonzero;stroke:#000;stroke-width:0.79px;stroke-linejoin:round;"/><path id="h12" serif:id="h" d="M291.298,122.63c0,0 -16.4,-3.152 -15.133,6.388c4.421,7.774 15.133,-6.388 15.133,-6.388Z" style="fill:#ffc709;fill-rule:nonzero;stroke:#000;stroke-width:1.01px;stroke-linejoin:round;"/><path id="h13" serif:id="h" d="M277.703,121.63c0,0 -15.065,6.545 -8.83,13.289c7.838,3.635 8.83,-13.289 8.83,-13.289Z" style="fill:#ffc709;fill-rule:nonzero;stroke:#000;stroke-width:0.98px;stroke-linejoin:round;"/><path id="h14" serif:id="h" d="M269.093,125.471c0,0 -15.426,7.782 -8.642,14.828c8.324,3.598 8.642,-14.828 8.642,-14.828Z" style="fill:#ffc709;fill-rule:nonzero;stroke:#000;stroke-width:1.05px;stroke-linejoin:round;"/><path id="h15" serif:id="h" d="M260.174,129.836c0,0 -14.354,8.717 -7.287,15.052c8.306,2.87 7.287,-15.052 7.287,-15.052Z" style="fill:#ffc709;fill-rule:nonzero;stroke:#000;stroke-width:1.02px;stroke-linejoin:round;"/><path id="h16" serif:id="h" d="M250.886,135.64c0,0 -12.76,10.046 -4.957,14.933c8.518,1.51 4.957,-14.933 4.957,-14.933Z" style="fill:#ffc709;fill-rule:nonzero;stroke:#000;stroke-width:0.96px;stroke-linejoin:round;"/><path id="h17" serif:id="h" d="M243.832,140.772c0,0 -12.371,10.641 -4.463,15.32c8.514,1.229 4.463,-15.32 4.463,-15.32Z" style="fill:#ffc709;fill-rule:nonzero;stroke:#000;stroke-width:0.98px;stroke-linejoin:round;"/><path id="h18" serif:id="h" d="M237.113,145.641c0,0 -12.456,10.477 -4.586,15.212c8.503,1.305 4.586,-15.212 4.586,-15.212Z" style="fill:#ffc709;fill-rule:nonzero;stroke:#000;stroke-width:0.97px;stroke-linejoin:round;"/><path id="h19" serif:id="h" d="M230.101,151.808c0,0 -10.955,11.938 -2.64,15.655c8.516,0.237 2.64,-15.655 2.64,-15.655Z" style="fill:#ffc709;fill-rule:nonzero;stroke:#000;stroke-width:0.97px;stroke-linejoin:round;"/><path id="h20" serif:id="h" d="M306.51,132.946c0,0 -9.565,13.192 -14.808,5.677c-1.877,-8.395 14.808,-5.677 14.808,-5.677Z" style="fill:#ffc709;fill-rule:nonzero;stroke:#000;stroke-width:0.97px;stroke-linejoin:round;"/><path id="h21" serif:id="h" d="M299.101,126.454c0,0 -15.844,-0.068 -13.055,9.139c5.437,6.872 13.055,-9.139 13.055,-9.139Z" style="fill:#ffc709;fill-rule:nonzero;stroke:#000;stroke-width:0.98px;stroke-linejoin:round;"/><path id="h22" serif:id="h" d="M298.49,142.031c0,0 -14.959,7.799 -16.446,-1.581c2.063,-8.64 16.446,1.581 16.446,1.581Z" style="fill:#ffc709;fill-rule:nonzero;stroke:#000;stroke-width:1.01px;stroke-linejoin:round;"/><path id="h23" serif:id="h" d="M288.301,127.598c0,0 -16.469,4.209 -11.26,12.125c7.371,5.003 11.26,-12.125 11.26,-12.125Z" style="fill:#ffc709;fill-rule:nonzero;stroke:#000;stroke-width:1.01px;stroke-linejoin:round;"/><path id="h24" serif:id="h" d="M288.111,145.291c0,0 -14.976,8.398 -16.609,-1.412c1.958,-9.087 16.609,1.412 16.609,1.412Z" style="fill:#ffc709;fill-rule:nonzero;stroke:#000;stroke-width:1.02px;stroke-linejoin:round;"/><path id="h25" serif:id="h" d="M278.698,150.13c0,0 -14.051,8.105 -15.824,-0.913c1.659,-8.435 15.824,0.913 15.824,0.913Z" style="fill:#ffc709;fill-rule:nonzero;stroke:#000;stroke-width:0.97px;stroke-linejoin:round;"/><path id="h26" serif:id="h" d="M277.747,130.421c0,0 -17.15,6.558 -10.656,14.691c8.473,4.668 10.656,-14.691 10.656,-14.691Z" style="fill:#ffc709;fill-rule:nonzero;stroke:#000;stroke-width:1.11px;stroke-linejoin:round;"/><path id="h27" serif:id="h" d="M266.157,136.554c0,0 -15.051,8.746 -7.588,15.016c8.751,2.816 7.588,-15.016 7.588,-15.016Z" style="fill:#ffc709;fill-rule:nonzero;stroke:#000;stroke-width:1.03px;stroke-linejoin:round;"/><path id="h28" serif:id="h" d="M270.252,154.421c0,0 -12.816,9.789 -15.501,0.864c0.717,-8.723 15.501,-0.864 15.501,-0.864Z" style="fill:#ffc709;fill-rule:nonzero;stroke:#000;stroke-width:0.95px;stroke-linejoin:round;"/><path id="h29" serif:id="h" d="M256.32,142.146c0,0 -14.099,10.243 -6.044,15.826c8.99,1.987 6.044,-15.826 6.044,-15.826Z" style="fill:#ffc709;fill-rule:nonzero;stroke:#000;stroke-width:1.04px;stroke-linejoin:round;"/><path id="h30" serif:id="h" d="M247.961,147.729c0,0 -12.696,10.628 -4.684,15.407c8.659,1.307 4.684,-15.407 4.684,-15.407Z" style="fill:#ffc709;fill-rule:nonzero;stroke:#000;stroke-width:0.98px;stroke-linejoin:round;"/><path id="h31" serif:id="h" d="M262.67,159.439c0,0 -11.938,11.627 -16.069,3.248c-0.546,-8.707 16.069,-3.248 16.069,-3.248Z" style="fill:#ffc709;fill-rule:nonzero;stroke:#000;stroke-width:1px;stroke-linejoin:round;"/></g><g><path id="h32" serif:id="h" d="M221.695,307.894c0,0 11.376,12.973 17.212,5.125c1.934,-8.596 -17.212,-5.125 -17.212,-5.125Z" style="fill:#ffc709;fill-rule:nonzero;stroke:#000;stroke-width:1.1px;stroke-linejoin:round;"/><path id="h33" serif:id="h" d="M227.249,315.168c0,0 12.499,13.968 17.796,4.882c1.296,-9.73 -17.796,-4.882 -17.796,-4.882Z" style="fill:#ffc709;fill-rule:nonzero;stroke:#000;stroke-width:1.13px;stroke-linejoin:round;"/><path id="h34" serif:id="h" d="M235.45,322.549c0,0 10.992,11.41 15.12,3.517c0.744,-8.298 -15.12,-3.517 -15.12,-3.517Z" style="fill:#ffc709;fill-rule:nonzero;stroke:#000;stroke-width:0.95px;stroke-linejoin:round;"/><path id="h35" serif:id="h" d="M244.908,294.143c0,0 10.58,11.793 2.405,15.333c-8.332,0.136 -2.405,-15.333 -2.405,-15.333Z" style="fill:#ffc709;fill-rule:nonzero;stroke:#000;stroke-width:0.95px;stroke-linejoin:round;"/><path id="h36" serif:id="h" d="M236.192,307.36c0,0 8.041,14.506 14.256,7.585c2.926,-8.23 -14.256,-7.585 -14.256,-7.585Z" style="fill:#ffc709;fill-rule:nonzero;stroke:#000;stroke-width:0.99px;stroke-linejoin:round;"/><path id="h37" serif:id="h" d="M250.356,304.596c0,0 9.701,12.525 14.653,5.121c1.632,-8.17 -14.653,-5.121 -14.653,-5.121Z" style="fill:#ffc709;fill-rule:nonzero;stroke:#000;stroke-width:0.95px;stroke-linejoin:round;"/><path id="h38" serif:id="h" d="M250.39,300.935c0,0 11.857,11.194 3.832,15.584c-8.492,0.896 -3.832,-15.584 -3.832,-15.584Z" style="fill:#ffc709;fill-rule:nonzero;stroke:#000;stroke-width:0.98px;stroke-linejoin:round;"/><path id="h39" serif:id="h" d="M242.237,316.836c0,0 10.917,12.41 15.654,4.433c1.214,-8.573 -15.654,-4.433 -15.654,-4.433Z" style="fill:#ffc709;fill-rule:nonzero;stroke:#000;stroke-width:1px;stroke-linejoin:round;"/><path id="h40" serif:id="h" d="M263.777,295.097c0,0 11.535,10.104 4.598,14.631c-7.612,1.229 -4.598,-14.631 -4.598,-14.631Z" style="fill:#ffc709;fill-rule:nonzero;stroke:#000;stroke-width:0.94px;stroke-linejoin:round;"/><path id="h41" serif:id="h" d="M256.806,309.824c0,0 10.059,11.319 14.307,3.945c1.032,-7.892 -14.307,-3.945 -14.307,-3.945Z" style="fill:#ffc709;fill-rule:nonzero;stroke:#000;stroke-width:0.91px;stroke-linejoin:round;"/><path id="h42" serif:id="h" d="M270.759,300.443c0,0 10.74,9.493 3.631,13.459c-7.573,0.94 -3.631,-13.459 -3.631,-13.459Z" style="fill:#ffc709;fill-rule:nonzero;stroke:#000;stroke-width:0.85px;stroke-linejoin:round;"/><path id="h43" serif:id="h" d="M261.733,315.475c0,0 12.028,10.312 15.386,2.062c-0.049,-8.331 -15.386,-2.062 -15.386,-2.062Z" style="fill:#ffc709;fill-rule:nonzero;stroke:#000;stroke-width:0.95px;stroke-linejoin:round;"/><path id="h44" serif:id="h" d="M256.895,307.79c0,0 13.264,9.733 5.699,15.056c-8.447,1.902 -5.699,-15.056 -5.699,-15.056Z" style="fill:#ffc709;fill-rule:nonzero;stroke:#000;stroke-width:0.98px;stroke-linejoin:round;"/><path id="h45" serif:id="h" d="M264.512,314.228c0,0 12.644,9.547 5.299,14.587c-8.152,1.73 -5.299,-14.587 -5.299,-14.587Z" style="fill:#ffc709;fill-rule:nonzero;stroke:#000;stroke-width:0.95px;stroke-linejoin:round;"/><path id="h46" serif:id="h" d="M277.52,307.173c0,0 11.135,11.269 3.14,15.198c-8.316,0.538 -3.14,-15.198 -3.14,-15.198Z" style="fill:#ffc709;fill-rule:nonzero;stroke:#000;stroke-width:0.95px;stroke-linejoin:round;"/></g><g><path id="h47" serif:id="h" d="M207.096,189.725c0,0 -5.6,15.496 3.836,15.678c8.216,-3.151 -3.836,-15.678 -3.836,-15.678Z" style="fill:#ffc709;fill-rule:nonzero;stroke:#000;stroke-width:0.99px;stroke-linejoin:round;"/><path id="h48" serif:id="h" d="M203.845,198.936c0,0 -4.418,15.984 5.095,15.475c8.023,-3.769 -5.095,-15.475 -5.095,-15.475Z" style="fill:#ffc709;fill-rule:nonzero;stroke:#000;stroke-width:1px;stroke-linejoin:round;"/><path id="h49" serif:id="h" d="M201.209,208.251c0,0 -3.564,15.971 6.454,14.916c8.218,-4.172 -6.454,-14.916 -6.454,-14.916Z" style="fill:#ffc709;fill-rule:nonzero;stroke:#000;stroke-width:1px;stroke-linejoin:round;"/><path id="h50" serif:id="h" d="M199.583,217.583c0,0 -1.871,17.393 7.446,15.3c7.336,-5.247 -7.446,-15.3 -7.446,-15.3Z" style="fill:#ffc709;fill-rule:nonzero;stroke:#000;stroke-width:1.04px;stroke-linejoin:round;"/><path id="h51" serif:id="h" d="M198.604,227.197c0,0 -1.242,16.6 8.043,14.29c7.179,-5.24 -8.043,-14.29 -8.043,-14.29Z" style="fill:#ffc709;fill-rule:nonzero;stroke:#000;stroke-width:1px;stroke-linejoin:round;"/><path id="h52" serif:id="h" d="M223.772,181.153c0,0 -11.229,13.594 -1.47,16.771c9.651,-0.517 1.47,-16.771 1.47,-16.771Z" style="fill:#ffc709;fill-rule:nonzero;stroke:#000;stroke-width:1.03px;stroke-linejoin:round;"/><path id="h53" serif:id="h" d="M234.251,193.05c0,0 -5.202,15.775 -12.76,10.213c-4.526,-7.487 12.76,-10.213 12.76,-10.213Z" style="fill:#ffc709;fill-rule:nonzero;stroke:#000;stroke-width:1px;stroke-linejoin:round;"/><path id="h54" serif:id="h" d="M216.649,191.46c0,0 -7.772,14.862 1.747,16.254c8.739,-2.113 -1.747,-16.254 -1.747,-16.254Z" style="fill:#ffc709;fill-rule:nonzero;stroke:#000;stroke-width:1px;stroke-linejoin:round;"/><path id="h55" serif:id="h" d="M234.266,195.923c0,0 -9.415,12.259 -0.837,14.31c8.386,-1.072 0.837,-14.31 0.837,-14.31Z" style="fill:#ffc709;fill-rule:nonzero;stroke:#000;stroke-width:0.87px;stroke-linejoin:round;"/><path id="h56" serif:id="h" d="M244.001,205.008c0,0 -3.981,13.718 -10.127,8.981c-3.734,-6.437 10.127,-8.981 10.127,-8.981Z" style="fill:#ffc709;fill-rule:nonzero;stroke:#000;stroke-width:0.82px;stroke-linejoin:round;"/><path id="h57" serif:id="h" d="M229.513,204.487c0,0 -6.119,13.53 1.798,14.067c7.195,-2.469 -1.798,-14.067 -1.798,-14.067Z" style="fill:#ffc709;fill-rule:nonzero;stroke:#000;stroke-width:0.86px;stroke-linejoin:round;"/><path id="h58" serif:id="h" d="M231.101,201.988c0,0 -4.4,15.898 -12.01,10.703c-4.735,-7.241 12.01,-10.703 12.01,-10.703Z" style="fill:#ffc709;fill-rule:nonzero;stroke:#000;stroke-width:0.98px;stroke-linejoin:round;"/><path id="h59" serif:id="h" d="M211.888,201.93c0,0 -5.063,16.916 5.025,16.556c8.589,-3.855 -5.025,-16.556 -5.025,-16.556Z" style="fill:#ffc709;fill-rule:nonzero;stroke:#000;stroke-width:1.06px;stroke-linejoin:round;"/><path id="h60" serif:id="h" d="M241.373,212.479c0,0 -2.601,13.285 -9.363,9.552c-4.486,-5.597 9.363,-9.552 9.363,-9.552Z" style="fill:#ffc709;fill-rule:nonzero;stroke:#000;stroke-width:0.82px;stroke-linejoin:round;"/><path id="h61" serif:id="h" d="M227.154,213.606c0,0 -5.155,12.769 2.937,12.799c7.121,-2.685 -2.937,-12.799 -2.937,-12.799Z" style="fill:#ffc709;fill-rule:nonzero;stroke:#000;stroke-width:0.8px;stroke-linejoin:round;"/><path id="h62" serif:id="h" d="M227.933,210.325c0,0 -1.657,16.611 -10.276,12.769c-6.069,-6.384 10.276,-12.769 10.276,-12.769Z" style="fill:#ffc709;fill-rule:nonzero;stroke:#000;stroke-width:1px;stroke-linejoin:round;"/><path id="h63" serif:id="h" d="M208.716,212.12c0,0 -2.931,17.871 6.467,16.367c7.622,-4.91 -6.467,-16.367 -6.467,-16.367Z" style="fill:#ffc709;fill-rule:nonzero;stroke:#000;stroke-width:1.07px;stroke-linejoin:round;"/><path id="h64" serif:id="h" d="M239.861,219.229c0,0 -1.858,14.554 -8.838,10.921c-4.805,-5.792 8.838,-10.921 8.838,-10.921Z" style="fill:#ffc709;fill-rule:nonzero;stroke:#000;stroke-width:0.86px;stroke-linejoin:round;"/><path id="h65" serif:id="h" d="M225.435,222.576c0,0 -3.825,13.388 4.171,12.738c6.768,-3.323 -4.171,-12.738 -4.171,-12.738Z" style="fill:#ffc709;fill-rule:nonzero;stroke:#000;stroke-width:0.82px;stroke-linejoin:round;"/><path id="h66" serif:id="h" d="M225.964,219.875c0,0 -0.499,16.595 -9.236,13.374c-6.402,-5.917 9.236,-13.374 9.236,-13.374Z" style="fill:#ffc709;fill-rule:nonzero;stroke:#000;stroke-width:0.99px;stroke-linejoin:round;"/><path id="h67" serif:id="h" d="M207.046,223.175c0,0 -0.29,17.628 8.779,14.65c6.817,-5.955 -8.779,-14.65 -8.779,-14.65Z" style="fill:#ffc709;fill-rule:nonzero;stroke:#000;stroke-width:1.04px;stroke-linejoin:round;"/><path id="h68" serif:id="h" d="M197.657,235.95c0,0 0.42,16.879 9.263,13.646c6.498,-5.987 -9.263,-13.646 -9.263,-13.646Z" style="fill:#ffc709;fill-rule:nonzero;stroke:#000;stroke-width:1.01px;stroke-linejoin:round;"/><path id="h69" serif:id="h" d="M238.291,227.123c0,0 0.423,14.026 -7.29,11.804c-5.835,-4.63 7.29,-11.804 7.29,-11.804Z" style="fill:#ffc709;fill-rule:nonzero;stroke:#000;stroke-width:0.85px;stroke-linejoin:round;"/><path id="h70" serif:id="h" d="M223.7,232.212c0,0 -1.726,14.646 6.767,12.548c6.693,-4.668 -6.767,-12.548 -6.767,-12.548Z" style="fill:#ffc709;fill-rule:nonzero;stroke:#000;stroke-width:0.87px;stroke-linejoin:round;"/><path id="h71" serif:id="h" d="M225.35,228.582c0,0 0.793,16.818 -8.095,14.282c-6.789,-5.455 8.095,-14.282 8.095,-14.282Z" style="fill:#ffc709;fill-rule:nonzero;stroke:#000;stroke-width:1px;stroke-linejoin:round;"/><path id="h72" serif:id="h" d="M205.896,233.322c0,0 1.311,16.829 9.766,13.109c6.02,-6.339 -9.766,-13.109 -9.766,-13.109Z" style="fill:#ffc709;fill-rule:nonzero;stroke:#000;stroke-width:1px;stroke-linejoin:round;"/><path id="h73" serif:id="h" d="M237.922,235.044c0,0 1.945,14.073 -5.947,12.539c-6.29,-4.127 5.947,-12.539 5.947,-12.539Z" style="fill:#ffc709;fill-rule:nonzero;stroke:#000;stroke-width:0.85px;stroke-linejoin:round;"/><path id="h74" serif:id="h" d="M224.07,241.075c0,0 -0.655,14.653 6.688,12.034c5.608,-5.058 -6.688,-12.034 -6.688,-12.034Z" style="fill:#ffc709;fill-rule:nonzero;stroke:#000;stroke-width:0.84px;stroke-linejoin:round;"/><path id="h75" serif:id="h" d="M238.368,242.861c0,0 2.25,13.568 -5.743,11.879c-6.43,-4.134 5.743,-11.879 5.743,-11.879Z" style="fill:#ffc709;fill-rule:nonzero;stroke:#000;stroke-width:0.81px;stroke-linejoin:round;"/><path id="h76" serif:id="h" d="M197.735,245.891c0,0 2.334,15.669 10.275,11.633c5.421,-6.328 -10.275,-11.633 -10.275,-11.633Z" style="fill:#ffc709;fill-rule:nonzero;stroke:#000;stroke-width:0.95px;stroke-linejoin:round;"/></g><g><path d="M227.918,278.508c0,0 -8.869,0.11 -14.784,-1.766c-7.765,-2.122 -10.858,-9.296 -10.858,-9.296c0,0 -1.138,1.643 -1.068,3.98c0.071,2.124 1.59,7.028 5.402,12.219c3.953,6.396 6.644,13.938 9.832,18.89c2.55,4.456 7.933,8.489 7.933,8.489c0,0 17.13,-2.047 18.787,-2.401c2.206,-0.337 17.342,-3.825 20.738,-4.013c3.396,-0.189 11.109,0.306 11.109,0.306c0,0 -2.715,-4.998 -4.026,-5.966c-2.621,-2.17 -5.788,-3.054 -9.066,-6.225c-1.791,-1.967 -4.81,-5.447 -6.508,-7.333c-2.124,-2.029 -3.727,-4.025 -6.038,-5.326c-1.887,-1.23 -21.453,-1.558 -21.453,-1.558Z" style="fill-rule:nonzero;stroke:#000;stroke-width:0.47px;"/><path d="M266.632,296.443c0,0 -6.296,0.16 -9.327,0.548c-3.35,0.53 -10.55,1.401 -16.331,1.992c-5.193,0.574 -9.592,0.909 -15.453,0.971l-10.645,-0.488c0.339,0.633 1.287,2.334 2.229,3.686c1.132,1.734 2.023,2.888 4.094,4.817c1.701,1.61 2.75,2.447 3.238,2.819c1.275,-0.142 9.329,-1.106 12.58,-1.556c5.348,-0.52 8.064,-1.236 14.223,-2.541c3.22,-0.657 10.683,-2.226 12.624,-2.333c2.19,-0.177 9.976,0.234 10.791,0.305c-0.513,-0.844 -1.123,-1.854 -1.976,-3.291c-1.207,-2.038 -2.142,-2.564 -3.84,-3.7c-0.673,-0.438 -2.151,-1.206 -2.207,-1.229Z" style="fill:#ffc709;fill-rule:nonzero;"/><path d="M208.543,286.525c0.497,0.921 1.804,3.559 2.972,5.918c1.495,3.232 2.319,4.993 3.41,7.114c2.373,0.176 4.689,0.244 10.597,0.433c5.862,-0.062 10.257,-0.397 15.452,-0.969c5.779,-0.59 12.983,-1.455 16.334,-1.983c3.031,-0.386 9.422,-0.54 9.422,-0.54c0,0 -2.839,-1.716 -4.16,-2.848c-1.639,-1.521 -2.392,-2.606 -3.73,-4.015c-1.734,-0.141 -4.151,-0.152 -6.793,-0.341c-4.623,-0.259 -11.733,0.224 -15.696,0.224c-3.962,0 -10.661,-0.135 -16.31,-0.793c-7.668,-0.55 -9.514,-1.811 -11.498,-2.2Z" style="fill:#d00;fill-rule:nonzero;"/><path d="M202.158,269.035c1.174,1.817 2.356,3.669 4.246,5.211c3.208,2.29 4.035,2.744 10.232,4.199c5.583,0.883 6.841,0.638 14.286,0.868c7.254,0.223 9.351,0.392 14.044,0.772c2.269,0.183 3.028,0.373 4.005,0.53" style="fill:none;stroke:#ffc709;stroke-width:0.75px;stroke-linecap:round;"/></g></g><g id="b1" serif:id="b"><path d="M389.897,330.432l33.902,-37.905l13.306,-47.562l-4.738,-43.919l-21.692,-42.098l-33.538,-25.876l-20.05,-7.472l-5.651,8.201l-9.842,2.915l5.65,4.738l0.729,12.211l34.267,22.414l20.78,34.624l2.005,38.999l-10.39,33.897l-39.735,37.905l34.997,8.928Z" style="fill:#ffc709;fill-rule:nonzero;"/><g><path id="c8" serif:id="c" d="M431.841,275.83c0,0 -1.475,4.329 -4.876,9.502c-3.763,5.375 -6.397,5.051 -6.397,5.051c0,0 -4.039,0.599 -4.503,-2.555c-0.107,-3.143 2.053,-4.203 2.055,-4.274c-0.002,0.071 2.373,-1.623 5.411,-2.866c2.624,-1.609 2.458,-1.58 4.012,-3.583c0.997,-2.305 0.66,-0.688 3.224,-9.744c2.565,-9.055 3.675,-14.106 3.746,-14.104l3.221,0.742l-3.374,13.198l-1.177,4.496l-1.342,4.137Z" style="fill:#ffc709;fill-rule:nonzero;stroke:#000;stroke-width:0.94px;stroke-linejoin:round;"/><path id="d5" serif:id="d" d="M433.655,244.933l-7.012,23.453c0,0 -0.831,2.547 -1.336,5.158c-0.027,3.123 0.528,4.37 0.528,4.37c0.071,0.002 0.333,1.665 0.484,3.37c0.058,2.338 -0.985,3.927 -0.982,3.856c-0.003,0.071 -0.798,1.222 -3.094,1.352c-2.637,-0.166 -2.969,-2.066 -2.969,-2.066c0,0 -0.4,-0.203 -0.197,-2.839c0.206,-2.635 1.675,-6.735 1.675,-6.735l10.017,-31.654l2.886,1.735Z" style="fill:#ffc709;fill-rule:nonzero;stroke:#000;stroke-width:0.94px;stroke-linejoin:round;"/><path id="d6" serif:id="d" d="M437.951,239.175l-6.162,23.691c0,0 -0.738,2.575 -1.148,5.202c0.086,3.123 0.685,4.348 0.685,4.348c0.071,0 0.393,1.653 0.605,3.35c0.142,2.335 -0.842,3.961 -0.842,3.89c0,0.071 -0.753,1.249 -3.043,1.462c-2.642,-0.071 -3.042,-1.957 -3.042,-1.957c0,0 -0.407,-0.189 -0.299,-2.83c0.111,-2.641 1.431,-6.791 1.431,-6.791l8.869,-31.995l2.946,1.63Z" style="fill:#ffc709;fill-rule:nonzero;stroke:#000;stroke-width:0.94px;stroke-linejoin:round;"/><path id="c9" serif:id="c" d="M435.784,273.961c0,0 -1.419,4.347 -4.752,9.564c-3.693,5.424 -6.331,5.134 -6.331,5.134c0,0 -4.03,0.652 -4.535,-2.497c-0.149,-3.141 1.997,-4.229 1.999,-4.3c-0.002,0.071 2.352,-1.654 5.373,-2.935c2.602,-1.644 2.437,-1.612 3.965,-3.636c0.967,-2.317 0.651,-0.697 3.097,-9.785c2.446,-9.088 3.491,-14.152 3.562,-14.151l3.231,0.7l-3.203,13.241l-1.118,4.51l-1.288,4.155Z" style="fill:#ffc709;fill-rule:nonzero;stroke:#000;stroke-width:0.94px;stroke-linejoin:round;"/><path id="c10" serif:id="c" d="M423.476,259.911c0,0 -1.178,4.321 -4.038,9.539c-3.173,5.429 -5.515,5.195 -5.515,5.195c0,0 -3.558,0.724 -4.062,-2.375c-0.188,-3.099 1.694,-4.216 1.694,-4.286c0,0.07 2.054,-1.68 4.706,-3.006c2.276,-1.674 2.13,-1.64 3.447,-3.669c0.816,-2.307 0.564,-0.7 2.569,-9.723c2.004,-9.023 2.839,-14.045 2.901,-14.045l2.874,0.627l-2.599,13.139l-0.91,4.476l-1.067,4.128Z" style="fill:#ffc709;fill-rule:nonzero;stroke:#000;stroke-width:0.89px;stroke-linejoin:round;"/><path id="c11" serif:id="c" d="M420.121,260.473c0,0 -1.332,4.375 -4.561,9.657c-3.583,5.497 -6.226,5.26 -6.226,5.26c0,0 -4.017,0.732 -4.585,-2.406c-0.211,-3.138 1.913,-4.268 1.913,-4.339c0,0.071 2.319,-1.701 5.313,-3.043c2.57,-1.694 2.405,-1.66 3.892,-3.714c0.921,-2.336 0.637,-0.709 2.901,-9.844c2.264,-9.135 3.208,-14.22 3.279,-14.22l3.244,0.636l-2.938,13.302l-1.028,4.532l-1.204,4.179Z" style="fill:#ffc709;fill-rule:nonzero;stroke:#000;stroke-width:0.94px;stroke-linejoin:round;"/><path id="d7" serif:id="d" d="M423.611,235.972l-6.162,23.692c0,0 -0.738,2.574 -1.149,5.202c0.086,3.122 0.686,4.348 0.686,4.348c0.071,0 0.392,1.652 0.605,3.35c0.142,2.335 -0.842,3.96 -0.842,3.89c0,0.07 -0.754,1.249 -3.043,1.462c-2.642,-0.071 -3.042,-1.958 -3.042,-1.958c0,0 -0.408,-0.188 -0.299,-2.829c0.11,-2.641 1.431,-6.792 1.431,-6.792l8.868,-31.995l2.947,1.63Z" style="fill:#ffc709;fill-rule:nonzero;stroke:#000;stroke-width:0.94px;stroke-linejoin:round;"/><path id="d8" serif:id="d" d="M412.045,243.256l-7.593,23.272c0,0 -0.894,2.525 -1.464,5.123c-0.104,3.122 0.42,4.381 0.42,4.381c0.07,0.005 0.291,1.674 0.4,3.381c-0.001,2.339 -1.082,3.902 -1.078,3.831c-0.004,0.071 -0.828,1.202 -3.126,1.275c-2.633,-0.232 -2.917,-2.139 -2.917,-2.139c0,0 -0.396,-0.213 -0.126,-2.843c0.271,-2.629 1.842,-6.692 1.842,-6.692l10.8,-31.395l2.842,1.806Z" style="fill:#ffc709;fill-rule:nonzero;stroke:#000;stroke-width:0.94px;stroke-linejoin:round;"/><path id="c12" serif:id="c" d="M407.995,273.979c0,0 -1.463,4.333 -4.85,9.515c-3.749,5.386 -6.383,5.069 -6.383,5.069c0,0 -4.038,0.61 -4.51,-2.544c-0.116,-3.142 2.041,-4.208 2.043,-4.279c-0.002,0.071 2.369,-1.63 5.403,-2.88c2.62,-1.616 2.454,-1.587 4.002,-3.595c0.992,-2.307 0.659,-0.689 3.198,-9.752c2.54,-9.062 3.637,-14.116 3.708,-14.114l3.223,0.734l-3.339,13.207l-1.164,4.499l-1.331,4.14Z" style="fill:#ffc709;fill-rule:nonzero;stroke:#000;stroke-width:0.94px;stroke-linejoin:round;"/><path id="c13" serif:id="c" d="M424.978,265.944c0,0 -1.331,4.375 -4.56,9.657c-3.584,5.496 -6.227,5.259 -6.227,5.259c0,0 -4.017,0.732 -4.584,-2.405c-0.212,-3.138 1.912,-4.268 1.912,-4.339c0,0.071 2.319,-1.701 5.314,-3.043c2.569,-1.694 2.404,-1.66 3.891,-3.714c0.921,-2.336 0.637,-0.709 2.901,-9.844c2.265,-9.135 3.208,-14.22 3.279,-14.22l3.244,0.635l-2.937,13.303l-1.028,4.532l-1.205,4.179Z" style="fill:#ffc709;fill-rule:nonzero;stroke:#000;stroke-width:0.94px;stroke-linejoin:round;"/><path id="c14" serif:id="c" d="M428.587,263.424c0,0 -1.331,4.375 -4.56,9.657c-3.584,5.497 -6.227,5.26 -6.227,5.26c0,0 -4.017,0.732 -4.584,-2.406c-0.212,-3.138 1.912,-4.268 1.912,-4.339c0,0.071 2.319,-1.701 5.314,-3.042c2.569,-1.695 2.404,-1.661 3.891,-3.715c0.921,-2.336 0.637,-0.709 2.901,-9.844c2.265,-9.135 3.208,-14.22 3.279,-14.22l3.244,0.636l-2.937,13.302l-1.028,4.532l-1.205,4.179Z" style="fill:#ffc709;fill-rule:nonzero;stroke:#000;stroke-width:0.94px;stroke-linejoin:round;"/><path id="d9" serif:id="d" d="M419.803,238.213l-6.162,23.691c0,0 -0.738,2.575 -1.148,5.202c0.086,3.123 0.685,4.348 0.685,4.348c0.071,0 0.392,1.653 0.605,3.351c0.142,2.334 -0.842,3.96 -0.842,3.889c0,0.071 -0.753,1.249 -3.043,1.462c-2.642,-0.071 -3.042,-1.957 -3.042,-1.957c0,0 -0.408,-0.189 -0.299,-2.83c0.11,-2.641 1.431,-6.791 1.431,-6.791l8.869,-31.995l2.946,1.63Z" style="fill:#ffc709;fill-rule:nonzero;stroke:#000;stroke-width:0.94px;stroke-linejoin:round;"/><path id="c15" serif:id="c" d="M403.884,275.148c0,0 -1.653,4.265 -5.264,9.293c-3.982,5.215 -6.6,4.783 -6.6,4.783c0,0 -4.06,0.432 -4.394,-2.739c0.023,-3.145 2.224,-4.114 2.23,-4.185c-0.006,0.071 2.438,-1.524 5.524,-2.64c2.688,-1.5 2.521,-1.477 4.157,-3.416c1.091,-2.261 0.688,-0.66 3.623,-9.602c2.936,-8.942 4.254,-13.942 4.325,-13.937l3.188,0.874l-3.917,13.048l-1.361,4.443l-1.511,4.078Z" style="fill:#ffc709;fill-rule:nonzero;stroke:#000;stroke-width:0.94px;stroke-linejoin:round;"/><path d="M407.517,247.896l-8.468,22.627c0,0 -0.987,2.448 -1.655,4.995c-0.223,3.109 0.251,4.41 0.251,4.41c0.071,0.009 0.228,1.692 0.272,3.407c-0.091,2.336 -1.229,3.809 -1.221,3.739c-0.008,0.07 -0.875,1.132 -3.17,1.021c-2.621,-0.443 -2.832,-2.37 -2.832,-2.37c0,0 -0.388,-2.51 0.336,-4.973c0.583,-3.098 6.13,-13.259 8.327,-20.129l4.894,-14.97l3.266,2.243Z" style="fill:#ffc709;fill-rule:nonzero;stroke:#000;stroke-width:0.94px;stroke-linejoin:round;"/></g><g><path id="e6" serif:id="e" d="M410.973,160.991c0,0 3.182,3.599 7.576,10.899c4.253,7.16 4.434,7.453 6.416,12.829c1.416,5.235 1.429,7.004 0.448,9.927c-1.265,2.357 -2.503,2.854 -3.656,2.901c-1.153,0.047 -1.746,-0.269 -2.593,-1.571c-1.699,-3.853 0.442,-5.787 1.084,-8.994c0.641,-3.207 0.375,-0.741 0.377,-3.116c-0.353,-3.154 -1.344,-3.98 -1.769,-4.831c-0.637,-1.203 -1.087,-2.11 -4.647,-7.421c-3.701,-5.665 -5.472,-8.779 -5.472,-8.779c0,0 -0.39,-1.266 0.465,-1.886c0.82,-0.595 1.771,0.042 1.771,0.042Z" style="fill:#ffc709;fill-rule:nonzero;stroke:#000;stroke-width:0.94px;"/><path id="e7" serif:id="e" d="M413.338,159.859c0,0 3.182,3.6 7.577,10.9c4.252,7.159 4.433,7.452 6.415,12.828c1.416,5.235 1.43,7.004 0.448,9.927c-1.265,2.358 -2.502,2.854 -3.656,2.901c-1.153,0.047 -1.746,-0.269 -2.593,-1.571c-1.698,-3.853 0.442,-5.786 1.084,-8.994c0.641,-3.207 0.376,-0.741 0.377,-3.116c-0.353,-3.154 -1.343,-3.98 -1.769,-4.831c-0.637,-1.203 -1.087,-2.11 -4.646,-7.421c-3.702,-5.665 -5.472,-8.779 -5.472,-8.779c0,0 -0.391,-1.266 0.465,-1.886c0.819,-0.595 1.77,0.042 1.77,0.042Z" style="fill:#ffc709;fill-rule:nonzero;stroke:#000;stroke-width:0.94px;"/><path id="e8" serif:id="e" d="M393.647,154.152c0,0 3.622,3.156 8.927,9.824c5.146,6.547 5.364,6.814 8.027,11.887c2.083,5.008 2.327,6.76 1.733,9.786c-0.948,2.501 -2.111,3.154 -3.248,3.35c-1.138,0.196 -1.767,-0.039 -2.776,-1.221c-2.184,-3.6 -0.312,-5.795 -0.093,-9.058c0.22,-3.263 0.277,-0.783 -0.03,-3.139c-0.76,-3.082 -1.849,-3.772 -2.381,-4.56c-0.788,-1.11 -1.352,-1.951 -5.571,-6.755c-4.405,-5.138 -6.565,-7.995 -6.565,-7.995c0,0 -0.552,-1.205 0.216,-1.931c0.735,-0.696 1.761,-0.188 1.761,-0.188Z" style="fill:#ffc709;fill-rule:nonzero;stroke:#000;stroke-width:0.94px;"/><path id="f6" serif:id="f" d="M404.771,154.163c0,0 5.66,9.254 7.709,12.798c2.497,3.897 4.78,9.406 6.953,12.325c2.625,2.772 5.245,3.231 7.081,5.003c2.106,1.886 2.495,2.8 2.594,4.388c-0.053,2.138 -2.151,3.687 -4.257,2.994c-2.097,-0.26 -4.423,-3.628 -4.423,-3.628c0,0 -2.998,-5.683 -5.067,-9.596c-4.499,-9.282 -13.506,-22.971 -13.506,-22.971l2.916,-1.313Z" style="fill:#ffc709;fill-rule:nonzero;stroke:#000;stroke-width:0.94px;"/><path id="e9" serif:id="e" d="M416.262,159.958c0,0 3.182,3.599 7.576,10.899c4.252,7.16 4.433,7.453 6.415,12.828c1.416,5.236 1.43,7.005 0.449,9.928c-1.265,2.357 -2.503,2.854 -3.656,2.901c-1.154,0.046 -1.747,-0.269 -2.594,-1.571c-1.698,-3.853 0.443,-5.787 1.084,-8.994c0.642,-3.207 0.376,-0.741 0.378,-3.116c-0.354,-3.154 -1.344,-3.98 -1.77,-4.831c-0.637,-1.203 -1.086,-2.11 -4.646,-7.421c-3.701,-5.665 -5.472,-8.779 -5.472,-8.779c0,0 -0.391,-1.266 0.465,-1.886c0.82,-0.595 1.771,0.042 1.771,0.042Z" style="fill:#ffc709;fill-rule:nonzero;stroke:#000;stroke-width:0.94px;"/><path id="f7" serif:id="f" d="M387.378,155.406c0,0 6.951,8.327 9.496,11.535c3.04,3.49 6.103,8.606 8.68,11.177c3.002,2.358 5.66,2.429 7.736,3.914c2.359,1.558 2.877,2.406 3.208,3.962c0.259,2.124 -1.59,3.962 -3.774,3.584c-2.114,0.049 -4.906,-2.942 -4.906,-2.942c0,0 -3.797,-5.185 -6.416,-8.754c-5.807,-8.525 -16.717,-20.751 -16.717,-20.751l2.693,-1.725Z" style="fill:#ffc709;fill-rule:nonzero;stroke:#000;stroke-width:0.94px;"/><path id="e10" serif:id="e" d="M391.364,156.015c0,0 3.582,3.202 8.8,9.938c5.061,6.613 5.275,6.883 7.872,11.99c2.019,5.034 2.239,6.789 1.607,9.807c-0.98,2.489 -2.152,3.127 -3.292,3.308c-1.139,0.182 -1.765,-0.062 -2.759,-1.257c-2.137,-3.628 -0.238,-5.798 0.024,-9.058c0.262,-3.26 0.287,-0.78 0.01,-3.139c-0.719,-3.092 -1.799,-3.796 -2.322,-4.591c-0.773,-1.12 -1.326,-1.968 -5.482,-6.826c-4.339,-5.194 -6.462,-8.079 -6.462,-8.079c0,0 -0.537,-1.212 0.241,-1.928c0.744,-0.687 1.763,-0.165 1.763,-0.165Z" style="fill:#ffc709;fill-rule:nonzero;stroke:#000;stroke-width:0.94px;"/><path id="f8" serif:id="f" d="M384.725,156.615c0,0 6.952,8.328 9.497,11.535c3.04,3.49 6.103,8.607 8.679,11.177c3.003,2.359 5.661,2.43 7.737,3.915c2.359,1.557 2.877,2.405 3.207,3.961c0.26,2.124 -1.589,3.962 -3.774,3.585c-2.113,0.048 -4.905,-2.943 -4.905,-2.943c0,0 -3.797,-5.184 -6.416,-8.754c-5.807,-8.525 -16.718,-20.751 -16.718,-20.751l2.693,-1.725Z" style="fill:#ffc709;fill-rule:nonzero;stroke:#000;stroke-width:0.94px;"/><path id="e11" serif:id="e" d="M397.109,152.65c0,0 3.595,3.188 8.84,9.903c5.087,6.593 5.303,6.862 7.92,11.958c2.04,5.026 2.267,6.78 1.647,9.801c-0.971,2.493 -2.139,3.135 -3.278,3.321c-1.14,0.186 -1.767,-0.055 -2.765,-1.246c-2.152,-3.619 -0.261,-5.797 -0.012,-9.058c0.249,-3.261 0.283,-0.781 -0.003,-3.139c-0.732,-3.089 -1.815,-3.788 -2.34,-4.582c-0.778,-1.117 -1.335,-1.963 -5.51,-6.804c-4.36,-5.176 -6.495,-8.053 -6.495,-8.053c0,0 -0.541,-1.209 0.234,-1.928c0.741,-0.69 1.762,-0.173 1.762,-0.173Z" style="fill:#ffc709;fill-rule:nonzero;stroke:#000;stroke-width:0.94px;"/><path id="f9" serif:id="f" d="M383.963,160.454c0,0 6.951,8.328 9.496,11.535c3.04,3.491 6.103,8.607 8.68,11.177c3.002,2.359 5.66,2.43 7.736,3.915c2.359,1.558 2.877,2.406 3.208,3.962c0.259,2.123 -1.59,3.961 -3.774,3.584c-2.113,0.048 -4.906,-2.943 -4.906,-2.943c0,0 -3.796,-5.184 -6.415,-8.753c-5.807,-8.526 -16.718,-20.752 -16.718,-20.752l2.693,-1.725Z" style="fill:#ffc709;fill-rule:nonzero;stroke:#000;stroke-width:0.94px;"/><path id="f10" serif:id="f" d="M386.082,167.21c0,0 7.247,9.027 9.892,12.497c3.178,3.79 6.295,9.283 9.008,12.088c3.196,2.602 6.131,2.792 8.348,4.438c2.526,1.734 3.054,2.645 3.338,4.29c0.175,2.236 -1.967,4.081 -4.362,3.59c-2.339,-0.041 -5.269,-3.296 -5.269,-3.296c0,0 -3.925,-5.597 -6.632,-9.45c-5.972,-9.184 -17.392,-22.467 -17.392,-22.467l3.069,-1.69Z" style="fill:#ffc709;fill-rule:nonzero;stroke:#000;stroke-width:1.02px;"/><path id="g2" serif:id="g" d="M383.89,174.652c0,0 1.004,1.213 9.492,12.106c7.762,11.926 8.941,14.171 8.941,14.171c0,0 1.251,2.303 2.516,2.993c1.264,0.691 3.42,0.615 4.069,0.121c0.618,-0.472 0.963,-0.546 1.175,-2.848c-0.236,-1.357 -0.632,-1.898 -1.196,-2.407c-1.149,-0.87 -1.735,-1.015 -3.146,-1.463c-1.393,-0.723 -1.929,-1.419 -2.877,-2.709c-1.878,-2.957 -2.716,-4.404 -5.869,-8.712c-4.087,-5.695 -7.3,-9.165 -11.033,-13.627l-2.072,2.375Z" style="fill:#ffc709;fill-rule:nonzero;stroke:#000;stroke-width:0.94px;"/><path id="f11" serif:id="f" d="M383.507,172.606c0,0 6.631,9.128 9.036,12.627c2.922,3.843 5.637,9.3 8.168,12.171c3.041,2.715 6.021,3.117 8.144,4.85c2.432,1.839 2.893,2.745 3.043,4.33c-0.011,2.139 -2.354,3.731 -4.757,3.084c-2.384,-0.217 -5.099,-3.532 -5.099,-3.532c0,0 -3.53,-5.617 -5.967,-9.484c-5.315,-9.182 -15.844,-22.672 -15.844,-22.672l3.276,-1.374Z" style="fill:#ffc709;fill-rule:nonzero;stroke:#000;stroke-width:1.02px;"/><path id="g3" serif:id="g" d="M378.296,175.821c0,0 0.94,1.263 8.853,12.581c7.136,12.31 8.197,14.613 8.197,14.613c0,0 1.131,2.365 2.358,3.12c1.227,0.754 3.384,0.791 4.057,0.33c0.642,-0.439 0.991,-0.495 1.321,-2.783c-0.166,-1.367 -0.533,-1.928 -1.07,-2.466c-1.102,-0.928 -1.68,-1.103 -3.066,-1.624c-1.354,-0.793 -1.853,-1.516 -2.734,-2.854c-1.722,-3.05 -2.484,-4.538 -5.41,-9.003c-3.787,-5.898 -6.817,-9.529 -10.314,-14.179l-2.192,2.265Z" style="fill:#ffc709;fill-rule:nonzero;stroke:#000;stroke-width:0.94px;"/></g><g><path d="M332.564,114.958c10.874,1.146 21.332,3.698 31.176,7.495l-0.839,1.683c-9.835,-3.772 -20.166,-6.236 -30.639,-7.349c-0.912,-0.102 -0.71,-1.928 0.302,-1.829Z" style="fill:#ffc709;fill-rule:nonzero;stroke:#000;stroke-width:0.78px;stroke-linecap:round;stroke-linejoin:round;"/><path d="M326.277,117.863c9.987,0.518 18.037,2.041 26.354,4.471c3.234,0.928 6.422,2.001 9.562,3.207l-0.853,1.708c-11.267,-4.285 -23.192,-6.824 -35.229,-7.508c-1.11,-0.121 -0.953,-1.859 0.166,-1.878Z" style="fill:#ffc709;fill-rule:nonzero;stroke:#000;stroke-width:0.75px;stroke-linecap:round;stroke-linejoin:round;"/><path d="M330.899,121.665c10.156,1.032 20.188,3.367 29.737,6.98l-0.717,1.434c-9.406,-3.539 -19.284,-5.823 -29.28,-6.849c-0.925,-0.066 -0.738,-1.651 0.26,-1.565Z" style="fill:#ffc709;fill-rule:nonzero;stroke:#000;stroke-width:0.75px;stroke-linecap:round;stroke-linejoin:round;"/><path d="M359.353,131.211l-0.848,1.693c-13.429,-4.888 -25.398,-6.761 -35.687,-7.066c-1.067,-0.065 -1.07,-1.802 0.142,-1.867c11.687,0.405 25.132,3.014 36.393,7.24Z" style="fill:#ffc709;fill-rule:nonzero;stroke:#000;stroke-width:0.75px;stroke-linecap:round;stroke-linejoin:round;"/><path d="M328.408,127.649c8.947,0.74 19.012,2.843 29.389,6.669l-0.868,1.731c-8.923,-3.303 -20.878,-5.954 -28.845,-6.541c-1.108,-0.164 -0.847,-1.948 0.324,-1.859Z" style="fill:#ffc709;fill-rule:nonzero;stroke:#000;stroke-width:0.75px;stroke-linecap:round;stroke-linejoin:round;"/><path d="M356.079,137.738l-0.844,1.687c-9.082,-3.334 -23.998,-6.488 -32.657,-6.343c-0.935,-0.072 -0.858,-1.817 0.08,-1.891c10.86,-0.006 22.213,2.481 33.421,6.547Z" style="fill:#ffc709;fill-rule:nonzero;stroke:#000;stroke-width:0.75px;stroke-linecap:round;stroke-linejoin:round;"/><path d="M329.398,135.219c8.514,0.974 16.928,2.954 24.989,5.9l-0.845,1.684c-7.589,-2.741 -15.968,-4.855 -24.359,-5.693c-1.244,-0.175 -1.071,-1.969 0.215,-1.891Z" style="fill:#ffc709;fill-rule:nonzero;stroke:#000;stroke-width:0.75px;stroke-linecap:round;stroke-linejoin:round;"/><path d="M352.702,144.481l-0.85,1.689c-7.432,-2.665 -19.178,-5.151 -27.171,-5.565c-1.161,-0.132 -1.007,-1.885 0.162,-1.915c9.356,0.355 19.551,2.878 27.859,5.791Z" style="fill:#ffc709;fill-rule:nonzero;stroke:#000;stroke-width:0.75px;stroke-linecap:round;stroke-linejoin:round;"/><path d="M323.997,142.765c6.931,0.053 19.072,2.605 26.865,5.382l-0.848,1.692c-7.45,-2.635 -19.723,-5.061 -26.106,-5.212c-1.286,-0.013 -1.257,-1.848 0.089,-1.862Z" style="fill:#ffc709;fill-rule:nonzero;stroke:#000;stroke-width:0.75px;stroke-linecap:round;stroke-linejoin:round;"/><path d="M329.909,147.146c6.498,0.925 12.92,2.483 19.119,4.665l-0.845,1.683c-5.919,-2.145 -12.516,-3.728 -18.665,-4.532c-1.187,-0.251 -0.905,-2.071 0.391,-1.816Z" style="fill:#ffc709;fill-rule:nonzero;stroke:#000;stroke-width:0.75px;stroke-linecap:round;stroke-linejoin:round;"/><path d="M324.239,150.249c7.158,0.257 16.505,2.361 23.213,4.707l-0.85,1.694c-6.254,-2.158 -15.181,-4.253 -22.392,-4.514c-1.307,-0.071 -1.197,-1.967 0.029,-1.887Z" style="fill:#ffc709;fill-rule:nonzero;stroke:#000;stroke-width:0.75px;stroke-linecap:round;stroke-linejoin:round;"/><path id="h77" serif:id="h" d="M337.382,145.107c0,0 14.979,-3.164 14.049,5.224c-3.868,6.918 -14.049,-5.224 -14.049,-5.224Z" style="fill:#ffc709;fill-rule:nonzero;stroke:#000;stroke-width:0.92px;stroke-linejoin:round;"/><path id="h78" serif:id="h" d="M340.618,154.696c0,0 12.149,7.865 14.274,0.126c-0.993,-7.432 -14.274,-0.126 -14.274,-0.126Z" style="fill:#ffc709;fill-rule:nonzero;stroke:#000;stroke-width:0.87px;stroke-linejoin:round;"/><path id="h79" serif:id="h" d="M349.81,144.483c0,0 14.026,3.442 9.704,10.36c-6.193,4.423 -9.704,-10.36 -9.704,-10.36Z" style="fill:#ffc709;fill-rule:nonzero;stroke:#000;stroke-width:0.87px;stroke-linejoin:round;"/><path id="h80" serif:id="h" d="M349.541,158.708c0,0 12.03,6.869 13.488,-0.788c-1.464,-7.16 -13.488,0.788 -13.488,0.788Z" style="fill:#ffc709;fill-rule:nonzero;stroke:#000;stroke-width:0.83px;stroke-linejoin:round;"/><path id="h81" serif:id="h" d="M359.004,147.535c0,0 13.315,5.018 8.265,11.217c-6.586,3.553 -8.265,-11.217 -8.265,-11.217Z" style="fill:#ffc709;fill-rule:nonzero;stroke:#000;stroke-width:0.85px;stroke-linejoin:round;"/><path id="h82" serif:id="h" d="M357.116,162.501c0,0 11.401,6.973 12.66,-0.676c-1.479,-7.177 -12.66,0.676 -12.66,0.676Z" style="fill:#ffc709;fill-rule:nonzero;stroke:#000;stroke-width:0.77px;stroke-linejoin:round;"/><path id="h83" serif:id="h" d="M367.745,151.489c0,0 11.91,7.313 5.718,12.095c-7.138,2.012 -5.718,-12.095 -5.718,-12.095Z" style="fill:#ffc709;fill-rule:nonzero;stroke:#000;stroke-width:0.82px;stroke-linejoin:round;"/><path id="h84" serif:id="h" d="M363.13,165.647c0,0 10.894,8.833 13.534,1.449c-0.343,-7.372 -13.534,-1.449 -13.534,-1.449Z" style="fill:#ffc709;fill-rule:nonzero;stroke:#000;stroke-width:0.83px;stroke-linejoin:round;"/><path id="h85" serif:id="h" d="M369.524,169.745c0,0 9.165,9.458 12.529,2.912c0.563,-6.881 -12.529,-2.912 -12.529,-2.912Z" style="fill:#ffc709;fill-rule:nonzero;stroke:#000;stroke-width:0.79px;stroke-linejoin:round;"/><path id="h86" serif:id="h" d="M374.975,157.007c0,0 11.619,7.302 5.454,11.893c-7.055,1.872 -5.454,-11.893 -5.454,-11.893Z" style="fill:#ffc709;fill-rule:nonzero;stroke:#000;stroke-width:0.8px;stroke-linejoin:round;"/><path id="h87" serif:id="h" d="M382.18,162.016c0,0 10.571,8.674 3.897,12.572c-7.212,1.065 -3.897,-12.572 -3.897,-12.572Z" style="fill:#ffc709;fill-rule:nonzero;stroke:#000;stroke-width:0.8px;stroke-linejoin:round;"/><path id="h88" serif:id="h" d="M375.664,175.166c0,0 9.173,10.237 12.584,3.011c0.596,-7.553 -12.584,-3.011 -12.584,-3.011Z" style="fill:#ffc709;fill-rule:nonzero;stroke:#000;stroke-width:0.79px;stroke-linejoin:round;"/><path id="h89" serif:id="h" d="M348.702,122.63c0,0 16.4,-3.152 15.133,6.388c-4.422,7.774 -15.133,-6.388 -15.133,-6.388Z" style="fill:#ffc709;fill-rule:nonzero;stroke:#000;stroke-width:1.01px;stroke-linejoin:round;"/><path id="h90" serif:id="h" d="M362.297,121.63c0,0 15.064,6.545 8.83,13.289c-7.839,3.635 -8.83,-13.289 -8.83,-13.289Z" style="fill:#ffc709;fill-rule:nonzero;stroke:#000;stroke-width:0.98px;stroke-linejoin:round;"/><path id="h91" serif:id="h" d="M370.906,125.471c0,0 15.427,7.782 8.643,14.828c-8.324,3.598 -8.643,-14.828 -8.643,-14.828Z" style="fill:#ffc709;fill-rule:nonzero;stroke:#000;stroke-width:1.05px;stroke-linejoin:round;"/><path id="h92" serif:id="h" d="M379.826,129.836c0,0 14.354,8.717 7.287,15.052c-8.307,2.87 -7.287,-15.052 -7.287,-15.052Z" style="fill:#ffc709;fill-rule:nonzero;stroke:#000;stroke-width:1.02px;stroke-linejoin:round;"/><path id="h93" serif:id="h" d="M389.114,135.64c0,0 12.759,10.046 4.957,14.933c-8.518,1.51 -4.957,-14.933 -4.957,-14.933Z" style="fill:#ffc709;fill-rule:nonzero;stroke:#000;stroke-width:0.96px;stroke-linejoin:round;"/><path id="h94" serif:id="h" d="M396.168,140.772c0,0 12.371,10.641 4.462,15.32c-8.513,1.229 -4.462,-15.32 -4.462,-15.32Z" style="fill:#ffc709;fill-rule:nonzero;stroke:#000;stroke-width:0.98px;stroke-linejoin:round;"/><path id="h95" serif:id="h" d="M402.886,145.641c0,0 12.457,10.477 4.587,15.212c-8.503,1.305 -4.587,-15.212 -4.587,-15.212Z" style="fill:#ffc709;fill-rule:nonzero;stroke:#000;stroke-width:0.97px;stroke-linejoin:round;"/><path id="h96" serif:id="h" d="M409.899,151.808c0,0 10.955,11.938 2.64,15.655c-8.517,0.237 -2.64,-15.655 -2.64,-15.655Z" style="fill:#ffc709;fill-rule:nonzero;stroke:#000;stroke-width:0.97px;stroke-linejoin:round;"/><path id="h97" serif:id="h" d="M333.49,132.946c0,0 9.564,13.192 14.808,5.677c1.877,-8.395 -14.808,-5.677 -14.808,-5.677Z" style="fill:#ffc709;fill-rule:nonzero;stroke:#000;stroke-width:0.97px;stroke-linejoin:round;"/><path id="h98" serif:id="h" d="M340.898,126.454c0,0 15.845,-0.068 13.055,9.139c-5.437,6.872 -13.055,-9.139 -13.055,-9.139Z" style="fill:#ffc709;fill-rule:nonzero;stroke:#000;stroke-width:0.98px;stroke-linejoin:round;"/><path id="h99" serif:id="h" d="M341.509,142.031c0,0 14.959,7.799 16.447,-1.581c-2.064,-8.64 -16.447,1.581 -16.447,1.581Z" style="fill:#ffc709;fill-rule:nonzero;stroke:#000;stroke-width:1.01px;stroke-linejoin:round;"/><path id="h100" serif:id="h" d="M351.699,127.598c0,0 16.469,4.209 11.26,12.125c-7.372,5.003 -11.26,-12.125 -11.26,-12.125Z" style="fill:#ffc709;fill-rule:nonzero;stroke:#000;stroke-width:1.01px;stroke-linejoin:round;"/><path id="h101" serif:id="h" d="M351.889,145.291c0,0 14.975,8.398 16.609,-1.412c-1.958,-9.087 -16.609,1.412 -16.609,1.412Z" style="fill:#ffc709;fill-rule:nonzero;stroke:#000;stroke-width:1.02px;stroke-linejoin:round;"/><path id="h102" serif:id="h" d="M361.301,150.13c0,0 14.052,8.105 15.824,-0.913c-1.659,-8.435 -15.824,0.913 -15.824,0.913Z" style="fill:#ffc709;fill-rule:nonzero;stroke:#000;stroke-width:0.97px;stroke-linejoin:round;"/><path id="h103" serif:id="h" d="M362.252,130.421c0,0 17.151,6.558 10.657,14.691c-8.473,4.668 -10.657,-14.691 -10.657,-14.691Z" style="fill:#ffc709;fill-rule:nonzero;stroke:#000;stroke-width:1.11px;stroke-linejoin:round;"/><path id="h104" serif:id="h" d="M373.843,136.554c0,0 15.051,8.746 7.587,15.016c-8.75,2.816 -7.587,-15.016 -7.587,-15.016Z" style="fill:#ffc709;fill-rule:nonzero;stroke:#000;stroke-width:1.03px;stroke-linejoin:round;"/><path id="h105" serif:id="h" d="M369.748,154.421c0,0 12.816,9.789 15.501,0.864c-0.717,-8.723 -15.501,-0.864 -15.501,-0.864Z" style="fill:#ffc709;fill-rule:nonzero;stroke:#000;stroke-width:0.95px;stroke-linejoin:round;"/><path id="h106" serif:id="h" d="M383.679,142.146c0,0 14.1,10.243 6.044,15.826c-8.989,1.987 -6.044,-15.826 -6.044,-15.826Z" style="fill:#ffc709;fill-rule:nonzero;stroke:#000;stroke-width:1.04px;stroke-linejoin:round;"/><path id="h107" serif:id="h" d="M392.039,147.729c0,0 12.696,10.628 4.684,15.407c-8.66,1.307 -4.684,-15.407 -4.684,-15.407Z" style="fill:#ffc709;fill-rule:nonzero;stroke:#000;stroke-width:0.98px;stroke-linejoin:round;"/><path id="h108" serif:id="h" d="M377.33,159.439c0,0 11.938,11.627 16.069,3.248c0.546,-8.707 -16.069,-3.248 -16.069,-3.248Z" style="fill:#ffc709;fill-rule:nonzero;stroke:#000;stroke-width:1px;stroke-linejoin:round;"/></g><g><path id="h109" serif:id="h" d="M418.304,307.894c0,0 -11.376,12.973 -17.211,5.125c-1.935,-8.596 17.211,-5.125 17.211,-5.125Z" style="fill:#ffc709;fill-rule:nonzero;stroke:#000;stroke-width:1.1px;stroke-linejoin:round;"/><path id="h110" serif:id="h" d="M412.751,315.168c0,0 -12.499,13.968 -17.797,4.882c-1.296,-9.73 17.797,-4.882 17.797,-4.882Z" style="fill:#ffc709;fill-rule:nonzero;stroke:#000;stroke-width:1.13px;stroke-linejoin:round;"/><path id="h111" serif:id="h" d="M404.549,322.549c0,0 -10.991,11.41 -15.119,3.517c-0.744,-8.298 15.119,-3.517 15.119,-3.517Z" style="fill:#ffc709;fill-rule:nonzero;stroke:#000;stroke-width:0.95px;stroke-linejoin:round;"/><path id="h112" serif:id="h" d="M395.092,294.143c0,0 -10.58,11.793 -2.406,15.333c8.333,0.136 2.406,-15.333 2.406,-15.333Z" style="fill:#ffc709;fill-rule:nonzero;stroke:#000;stroke-width:0.95px;stroke-linejoin:round;"/><path id="h113" serif:id="h" d="M403.807,307.36c0,0 -8.04,14.506 -14.256,7.585c-2.925,-8.23 14.256,-7.585 14.256,-7.585Z" style="fill:#ffc709;fill-rule:nonzero;stroke:#000;stroke-width:0.99px;stroke-linejoin:round;"/><path id="h114" serif:id="h" d="M389.644,304.596c0,0 -9.701,12.525 -14.653,5.121c-1.632,-8.17 14.653,-5.121 14.653,-5.121Z" style="fill:#ffc709;fill-rule:nonzero;stroke:#000;stroke-width:0.95px;stroke-linejoin:round;"/><path id="h115" serif:id="h" d="M389.61,300.935c0,0 -11.858,11.194 -3.832,15.584c8.492,0.896 3.832,-15.584 3.832,-15.584Z" style="fill:#ffc709;fill-rule:nonzero;stroke:#000;stroke-width:0.98px;stroke-linejoin:round;"/><path id="h116" serif:id="h" d="M397.763,316.836c0,0 -10.918,12.41 -15.655,4.433c-1.213,-8.573 15.655,-4.433 15.655,-4.433Z" style="fill:#ffc709;fill-rule:nonzero;stroke:#000;stroke-width:1px;stroke-linejoin:round;"/><path id="h117" serif:id="h" d="M376.222,295.097c0,0 -11.534,10.104 -4.597,14.631c7.612,1.229 4.597,-14.631 4.597,-14.631Z" style="fill:#ffc709;fill-rule:nonzero;stroke:#000;stroke-width:0.94px;stroke-linejoin:round;"/><path id="h118" serif:id="h" d="M383.193,309.824c0,0 -10.058,11.319 -14.306,3.945c-1.032,-7.892 14.306,-3.945 14.306,-3.945Z" style="fill:#ffc709;fill-rule:nonzero;stroke:#000;stroke-width:0.91px;stroke-linejoin:round;"/><path id="h119" serif:id="h" d="M369.24,300.443c0,0 -10.739,9.493 -3.63,13.459c7.573,0.94 3.63,-13.459 3.63,-13.459Z" style="fill:#ffc709;fill-rule:nonzero;stroke:#000;stroke-width:0.85px;stroke-linejoin:round;"/><path id="h120" serif:id="h" d="M378.266,315.475c0,0 -12.027,10.312 -15.385,2.062c0.049,-8.331 15.385,-2.062 15.385,-2.062Z" style="fill:#ffc709;fill-rule:nonzero;stroke:#000;stroke-width:0.95px;stroke-linejoin:round;"/><path id="h121" serif:id="h" d="M383.105,307.79c0,0 -13.264,9.733 -5.699,15.056c8.447,1.902 5.699,-15.056 5.699,-15.056Z" style="fill:#ffc709;fill-rule:nonzero;stroke:#000;stroke-width:0.98px;stroke-linejoin:round;"/><path id="h122" serif:id="h" d="M375.487,314.228c0,0 -12.643,9.547 -5.298,14.587c8.152,1.73 5.298,-14.587 5.298,-14.587Z" style="fill:#ffc709;fill-rule:nonzero;stroke:#000;stroke-width:0.95px;stroke-linejoin:round;"/><path id="h123" serif:id="h" d="M362.48,307.173c0,0 -11.135,11.269 -3.141,15.198c8.316,0.538 3.141,-15.198 3.141,-15.198Z" style="fill:#ffc709;fill-rule:nonzero;stroke:#000;stroke-width:0.95px;stroke-linejoin:round;"/></g><g><path id="h124" serif:id="h" d="M432.903,189.725c0,0 5.601,15.496 -3.835,15.678c-8.216,-3.151 3.835,-15.678 3.835,-15.678Z" style="fill:#ffc709;fill-rule:nonzero;stroke:#000;stroke-width:0.99px;stroke-linejoin:round;"/><path id="h125" serif:id="h" d="M436.155,198.936c0,0 4.418,15.984 -5.096,15.475c-8.023,-3.769 5.096,-15.475 5.096,-15.475Z" style="fill:#ffc709;fill-rule:nonzero;stroke:#000;stroke-width:1px;stroke-linejoin:round;"/><path id="h126" serif:id="h" d="M438.791,208.251c0,0 3.564,15.971 -6.455,14.916c-8.217,-4.172 6.455,-14.916 6.455,-14.916Z" style="fill:#ffc709;fill-rule:nonzero;stroke:#000;stroke-width:1px;stroke-linejoin:round;"/><path id="h127" serif:id="h" d="M440.417,217.583c0,0 1.87,17.393 -7.446,15.3c-7.336,-5.247 7.446,-15.3 7.446,-15.3Z" style="fill:#ffc709;fill-rule:nonzero;stroke:#000;stroke-width:1.04px;stroke-linejoin:round;"/><path id="h128" serif:id="h" d="M441.396,227.197c0,0 1.241,16.6 -8.043,14.29c-7.179,-5.24 8.043,-14.29 8.043,-14.29Z" style="fill:#ffc709;fill-rule:nonzero;stroke:#000;stroke-width:1px;stroke-linejoin:round;"/><path id="h129" serif:id="h" d="M416.228,181.153c0,0 11.229,13.594 1.47,16.771c-9.651,-0.517 -1.47,-16.771 -1.47,-16.771Z" style="fill:#ffc709;fill-rule:nonzero;stroke:#000;stroke-width:1.03px;stroke-linejoin:round;"/><path id="h130" serif:id="h" d="M405.749,193.05c0,0 5.202,15.775 12.759,10.213c4.527,-7.487 -12.759,-10.213 -12.759,-10.213Z" style="fill:#ffc709;fill-rule:nonzero;stroke:#000;stroke-width:1px;stroke-linejoin:round;"/><path id="h131" serif:id="h" d="M423.351,191.46c0,0 7.772,14.862 -1.748,16.254c-8.738,-2.113 1.748,-16.254 1.748,-16.254Z" style="fill:#ffc709;fill-rule:nonzero;stroke:#000;stroke-width:1px;stroke-linejoin:round;"/><path id="h132" serif:id="h" d="M405.734,195.923c0,0 9.415,12.259 0.837,14.31c-8.386,-1.072 -0.837,-14.31 -0.837,-14.31Z" style="fill:#ffc709;fill-rule:nonzero;stroke:#000;stroke-width:0.87px;stroke-linejoin:round;"/><path id="h133" serif:id="h" d="M395.999,205.008c0,0 3.981,13.718 10.127,8.981c3.734,-6.437 -10.127,-8.981 -10.127,-8.981Z" style="fill:#ffc709;fill-rule:nonzero;stroke:#000;stroke-width:0.82px;stroke-linejoin:round;"/><path id="h134" serif:id="h" d="M410.487,204.487c0,0 6.118,13.53 -1.799,14.067c-7.194,-2.469 1.799,-14.067 1.799,-14.067Z" style="fill:#ffc709;fill-rule:nonzero;stroke:#000;stroke-width:0.86px;stroke-linejoin:round;"/><path id="h135" serif:id="h" d="M408.898,201.988c0,0 4.401,15.898 12.01,10.703c4.736,-7.241 -12.01,-10.703 -12.01,-10.703Z" style="fill:#ffc709;fill-rule:nonzero;stroke:#000;stroke-width:0.98px;stroke-linejoin:round;"/><path id="h136" serif:id="h" d="M428.111,201.93c0,0 5.064,16.916 -5.025,16.556c-8.588,-3.855 5.025,-16.556 5.025,-16.556Z" style="fill:#ffc709;fill-rule:nonzero;stroke:#000;stroke-width:1.06px;stroke-linejoin:round;"/><path id="h137" serif:id="h" d="M398.626,212.479c0,0 2.602,13.285 9.364,9.552c4.486,-5.597 -9.364,-9.552 -9.364,-9.552Z" style="fill:#ffc709;fill-rule:nonzero;stroke:#000;stroke-width:0.82px;stroke-linejoin:round;"/><path id="h138" serif:id="h" d="M412.846,213.606c0,0 5.155,12.769 -2.938,12.799c-7.12,-2.685 2.938,-12.799 2.938,-12.799Z" style="fill:#ffc709;fill-rule:nonzero;stroke:#000;stroke-width:0.8px;stroke-linejoin:round;"/><path id="h139" serif:id="h" d="M412.067,210.325c0,0 1.657,16.611 10.276,12.769c6.068,-6.384 -10.276,-12.769 -10.276,-12.769Z" style="fill:#ffc709;fill-rule:nonzero;stroke:#000;stroke-width:1px;stroke-linejoin:round;"/><path id="h140" serif:id="h" d="M431.284,212.12c0,0 2.931,17.871 -6.468,16.367c-7.621,-4.91 6.468,-16.367 6.468,-16.367Z" style="fill:#ffc709;fill-rule:nonzero;stroke:#000;stroke-width:1.07px;stroke-linejoin:round;"/><path id="h141" serif:id="h" d="M400.138,219.229c0,0 1.859,14.554 8.838,10.921c4.805,-5.792 -8.838,-10.921 -8.838,-10.921Z" style="fill:#ffc709;fill-rule:nonzero;stroke:#000;stroke-width:0.86px;stroke-linejoin:round;"/><path id="h142" serif:id="h" d="M414.565,222.576c0,0 3.825,13.388 -4.172,12.738c-6.768,-3.323 4.172,-12.738 4.172,-12.738Z" style="fill:#ffc709;fill-rule:nonzero;stroke:#000;stroke-width:0.82px;stroke-linejoin:round;"/><path id="h143" serif:id="h" d="M414.036,219.875c0,0 0.499,16.595 9.236,13.374c6.402,-5.917 -9.236,-13.374 -9.236,-13.374Z" style="fill:#ffc709;fill-rule:nonzero;stroke:#000;stroke-width:0.99px;stroke-linejoin:round;"/><path id="h144" serif:id="h" d="M432.953,223.175c0,0 0.291,17.628 -8.778,14.65c-6.818,-5.955 8.778,-14.65 8.778,-14.65Z" style="fill:#ffc709;fill-rule:nonzero;stroke:#000;stroke-width:1.04px;stroke-linejoin:round;"/><path id="h145" serif:id="h" d="M442.343,235.95c0,0 -0.42,16.879 -9.263,13.646c-6.498,-5.987 9.263,-13.646 9.263,-13.646Z" style="fill:#ffc709;fill-rule:nonzero;stroke:#000;stroke-width:1.01px;stroke-linejoin:round;"/><path id="h146" serif:id="h" d="M401.708,227.123c0,0 -0.423,14.026 7.29,11.804c5.835,-4.63 -7.29,-11.804 -7.29,-11.804Z" style="fill:#ffc709;fill-rule:nonzero;stroke:#000;stroke-width:0.85px;stroke-linejoin:round;"/><path id="h147" serif:id="h" d="M416.3,232.212c0,0 1.726,14.646 -6.768,12.548c-6.692,-4.668 6.768,-12.548 6.768,-12.548Z" style="fill:#ffc709;fill-rule:nonzero;stroke:#000;stroke-width:0.87px;stroke-linejoin:round;"/><path id="h148" serif:id="h" d="M414.65,228.582c0,0 -0.793,16.818 8.095,14.282c6.788,-5.455 -8.095,-14.282 -8.095,-14.282Z" style="fill:#ffc709;fill-rule:nonzero;stroke:#000;stroke-width:1px;stroke-linejoin:round;"/><path id="h149" serif:id="h" d="M434.103,233.322c0,0 -1.31,16.829 -9.765,13.109c-6.021,-6.339 9.765,-13.109 9.765,-13.109Z" style="fill:#ffc709;fill-rule:nonzero;stroke:#000;stroke-width:1px;stroke-linejoin:round;"/><path id="h150" serif:id="h" d="M402.078,235.044c0,0 -1.945,14.073 5.946,12.539c6.291,-4.127 -5.946,-12.539 -5.946,-12.539Z" style="fill:#ffc709;fill-rule:nonzero;stroke:#000;stroke-width:0.85px;stroke-linejoin:round;"/><path id="h151" serif:id="h" d="M415.929,241.075c0,0 0.655,14.653 -6.687,12.034c-5.608,-5.058 6.687,-12.034 6.687,-12.034Z" style="fill:#ffc709;fill-rule:nonzero;stroke:#000;stroke-width:0.84px;stroke-linejoin:round;"/><path id="h152" serif:id="h" d="M401.632,242.861c0,0 -2.25,13.568 5.743,11.879c6.43,-4.134 -5.743,-11.879 -5.743,-11.879Z" style="fill:#ffc709;fill-rule:nonzero;stroke:#000;stroke-width:0.81px;stroke-linejoin:round;"/><path id="h153" serif:id="h" d="M442.265,245.891c0,0 -2.334,15.669 -10.276,11.633c-5.42,-6.328 10.276,-11.633 10.276,-11.633Z" style="fill:#ffc709;fill-rule:nonzero;stroke:#000;stroke-width:0.95px;stroke-linejoin:round;"/></g><g><path d="M412.082,278.508c0,0 8.868,0.11 14.784,-1.766c7.765,-2.122 10.858,-9.296 10.858,-9.296c0,0 1.138,1.643 1.067,3.98c-0.071,2.124 -1.589,7.028 -5.401,12.219c-3.953,6.396 -6.645,13.938 -9.833,18.89c-2.549,4.456 -7.932,8.489 -7.932,8.489c0,0 -17.13,-2.047 -18.788,-2.401c-2.205,-0.337 -17.341,-3.825 -20.737,-4.013c-3.397,-0.189 -11.109,0.306 -11.109,0.306c0,0 2.714,-4.998 4.026,-5.966c2.621,-2.17 5.788,-3.054 9.066,-6.225c1.79,-1.967 4.81,-5.447 6.508,-7.333c2.124,-2.029 3.727,-4.025 6.038,-5.326c1.887,-1.23 21.453,-1.558 21.453,-1.558Z" style="fill-rule:nonzero;stroke:#000;stroke-width:0.47px;"/><path d="M373.367,296.443c0,0 6.297,0.16 9.328,0.548c3.349,0.53 10.55,1.401 16.331,1.992c5.193,0.574 9.592,0.909 15.453,0.971l10.645,-0.488c-0.339,0.633 -1.287,2.334 -2.229,3.686c-1.133,1.734 -2.023,2.888 -4.094,4.817c-1.701,1.61 -2.751,2.447 -3.238,2.819c-1.276,-0.142 -9.329,-1.106 -12.58,-1.556c-5.349,-0.52 -8.064,-1.236 -14.223,-2.541c-3.22,-0.657 -10.683,-2.226 -12.624,-2.333c-2.19,-0.177 -9.976,0.234 -10.792,0.305c0.514,-0.844 1.124,-1.854 1.976,-3.291c1.208,-2.038 2.142,-2.564 3.841,-3.7c0.673,-0.438 2.151,-1.206 2.206,-1.229Z" style="fill:#ffc709;fill-rule:nonzero;"/><path d="M431.457,286.525c-0.497,0.921 -1.804,3.559 -2.973,5.918c-1.494,3.232 -2.318,4.993 -3.41,7.114c-2.373,0.176 -4.688,0.244 -10.596,0.433c-5.862,-0.062 -10.258,-0.397 -15.452,-0.969c-5.78,-0.59 -12.983,-1.455 -16.334,-1.983c-3.031,-0.386 -9.423,-0.54 -9.423,-0.54c0,0 2.84,-1.716 4.161,-2.848c1.639,-1.521 2.392,-2.606 3.73,-4.015c1.734,-0.141 4.151,-0.152 6.792,-0.341c4.624,-0.259 11.734,0.224 15.696,0.224c3.963,0 10.662,-0.135 16.311,-0.793c7.668,-0.55 9.514,-1.811 11.498,-2.2Z" style="fill:#d00;fill-rule:nonzero;"/><path d="M437.842,269.035c-1.175,1.817 -2.357,3.669 -4.246,5.211c-3.208,2.29 -4.035,2.744 -10.232,4.199c-5.584,0.883 -6.841,0.638 -14.286,0.868c-7.255,0.223 -9.351,0.392 -14.044,0.772c-2.269,0.183 -3.029,0.373 -4.005,0.53" style="fill:none;stroke:#ffc709;stroke-width:0.75px;stroke-linecap:round;"/></g></g><g><path d="M289.657,311.729c-1.036,0.009 -2.138,0.152 -3.203,0.339c-7.109,1.232 -12.464,5.397 -30.172,9.584c-6.1,1.67 -12.336,2.217 -19.54,1.857c-0.531,-0.148 -0.958,-0.745 -0.966,-1.372l-1.736,-0.99c-0.759,1.173 -0.297,2.373 -0.024,3.103c0.225,0.601 0.583,1.282 1.114,1.703c12.802,9.114 13.131,11.074 20.496,18.021c4.061,4.001 5.285,5.267 18.803,3.123c2.667,4.323 3.244,6.578 10.935,4.343l1.292,3.24c1.195,2.232 2.835,2.267 6.995,1.381c10.775,-2.316 13.892,-4.944 26.196,-5.216c12.307,0.272 15.423,2.898 26.199,5.216c4.16,0.886 5.8,0.851 6.995,-1.381l1.292,-3.24c7.693,2.235 8.27,-0.02 10.935,-4.343c13.519,2.144 14.744,0.878 18.803,-3.123c7.365,-6.947 7.694,-8.907 20.497,-18.021c0.53,-0.421 0.884,-1.102 1.108,-1.703c0.274,-0.73 0.742,-1.93 -0.019,-3.103l-1.736,0.99c-0.008,0.627 -0.435,1.224 -0.966,1.372c-7.204,0.36 -13.439,-0.187 -19.539,-1.857c-17.708,-4.187 -23.064,-8.352 -30.171,-9.584c-2.844,-0.499 -5.963,-0.688 -7.289,1.156c-1.531,1.867 -2.804,5.411 -4.995,8.711c-4.111,-1.305 -7.374,-2.508 -10.736,-3.217c-4.492,-0.945 -7.73,-0.888 -10.378,-0.888c-2.605,0 -5.884,-0.057 -10.373,0.888c-3.363,0.709 -6.627,1.912 -10.737,3.217c-2.192,-3.3 -3.463,-6.844 -4.995,-8.711c-0.829,-1.153 -2.361,-1.509 -4.085,-1.495Z" style="fill-rule:nonzero;stroke:#000;stroke-width:0.47px;"/><path d="M288.345,320.533c1.108,1.973 1.559,3.535 1.988,5.252" style="fill:none;stroke:#ffc709;stroke-width:0.75px;"/><path d="M245.418,333.621c4.527,-0.491 5.844,-0.614 9.588,-1.236c3.511,-0.641 6.411,-1.284 9.567,-2.137c0.956,1.422 1.845,2.787 2.835,4.198c0.888,1.415 1.283,1.935 2.66,4.851c-2.841,0.258 -5.193,0.69 -8.182,1.072c-2.564,0.335 -5.505,0.736 -8.513,1.104c-1.154,-1.13 -2.034,-2.055 -3.29,-3.356c-1.532,-1.544 -2.7,-2.747 -4.665,-4.496Z" style="fill:#d00;fill-rule:nonzero;"/><path d="M277.175,332.655c-4.556,0.96 -5.121,1.052 -8.541,2.16c1.737,3.026 2.711,5.883 3.922,8.397c3.508,-0.795 5.292,-1.165 8.69,-1.865l-1.723,-3.698l-2.348,-4.994Z" style="fill:#d00;fill-rule:nonzero;"/><path d="M253.359,341.464c2.784,-0.33 5.517,-0.712 8.352,-1.082c3.314,-0.445 5.543,-0.818 8.586,-1.121c0.628,1.461 0.951,2.247 1.697,3.891c0.623,1.371 1.448,2.672 2.068,3.78c-2.015,0.281 -3.558,0.521 -5.774,0.752c-2.392,0.2 -3.257,0.277 -5.193,0.154c-1.903,-0.172 -3.296,-0.545 -4.99,-1.869c-1.096,-0.883 -2.839,-2.658 -4.746,-4.505Z" style="fill:#ffc709;fill-rule:nonzero;"/><path d="M272.557,343.212c3.028,-0.706 5.744,-1.278 8.939,-1.917c0.761,1.834 1.059,2.67 1.708,4.559c0.676,1.904 1.24,3.626 1.861,5.438c-1.519,0.409 -2.083,0.536 -3.78,0.755c-1.372,0.101 -2.654,-0.046 -3.644,-0.841c-0.794,-0.572 -1.925,-2.309 -2.989,-4.17c-0.803,-1.432 -1.358,-2.303 -2.095,-3.824Z" style="fill:#ffc709;fill-rule:nonzero;"/><path d="M318.096,329.344c-2.663,0.143 -5.322,0.48 -6.193,0.688c-5.131,1.256 -8.194,2.326 -11.704,3.504c-6.213,2.077 -8.171,3.031 -11.665,4.099c-2.766,0.847 -4.728,1.304 -7.246,1.882c1.211,2.872 2.115,5.489 3.203,8.616c3.161,-0.543 5.694,-1.107 8.845,-2.055c3.532,-1.164 6.637,-2.154 10.444,-3.307c3.294,-0.997 5.632,-1.559 10.014,-2.301c1.749,-0.165 3.023,-0.267 4.349,-0.311l0,0.004c0.632,-0.021 1.173,-0.03 1.704,-0.033c0.531,0.003 1.073,0.012 1.707,0.033l0,-0.004c1.326,0.045 2.601,0.146 4.349,0.311c4.382,0.742 6.721,1.304 10.014,2.301c3.807,1.153 6.912,2.143 10.445,3.307c3.15,0.948 5.684,1.512 8.845,2.055c1.089,-3.127 1.993,-5.744 3.202,-8.616c-2.516,-0.578 -4.48,-1.035 -7.246,-1.882c-3.494,-1.068 -5.452,-2.022 -11.665,-4.099c-3.51,-1.178 -6.573,-2.248 -11.703,-3.504c-0.871,-0.208 -3.531,-0.545 -6.194,-0.688c-1.63,-0.068 -1.882,-0.068 -3.505,0Z" style="fill:#d00;fill-rule:nonzero;"/><path d="M318.36,340.126l0,0.009c-2.915,0.049 -4.965,0.285 -9.317,1.221c-7.206,1.676 -13.502,4.144 -17.646,5.277c-2.439,0.617 -4.546,1.054 -6.901,1.52c0.773,2.436 1.616,4.66 2.5,6.678c0.929,1.517 2.253,1.689 3.698,1.518c2.306,-0.354 4.204,-0.762 6.538,-1.362c4.637,-1.248 8.42,-2.539 12.85,-3.444c3.541,-0.643 6.351,-0.83 9.765,-0.929c3.413,0.099 6.221,0.286 9.764,0.929c4.43,0.905 8.217,2.196 12.855,3.444c2.335,0.6 4.231,1.008 6.537,1.362c1.445,0.171 2.77,-0.001 3.699,-1.518c0.883,-2.018 1.726,-4.242 2.499,-6.678c-2.354,-0.466 -4.466,-0.903 -6.906,-1.52c-4.143,-1.133 -10.435,-3.601 -17.641,-5.277c-4.351,-0.935 -6.404,-1.172 -9.317,-1.221l0,-0.009c-0.572,-0.003 -0.993,0.004 -1.49,0.004c-0.497,0 -0.916,-0.007 -1.487,-0.004Z" style="fill:#ffc709;fill-rule:nonzero;"/><path d="M351.311,320.651c-0.872,1.817 -1.557,3.494 -2.025,5.134" style="fill:none;stroke:#ffc709;stroke-width:0.75px;"/><path d="M394.28,333.621c-4.527,-0.491 -5.847,-0.614 -9.59,-1.236c-3.511,-0.641 -6.41,-1.284 -9.566,-2.137c-0.956,1.422 -1.846,2.787 -2.836,4.198c-0.888,1.415 -1.282,1.935 -2.66,4.851c2.842,0.258 5.192,0.69 8.183,1.072c2.564,0.335 5.504,0.736 8.512,1.104c1.155,-1.13 2.035,-2.055 3.289,-3.356c1.534,-1.544 2.702,-2.747 4.668,-4.496Z" style="fill:#d00;fill-rule:nonzero;"/><path d="M362.522,332.655c4.556,0.96 5.119,1.052 8.541,2.16c-1.739,3.026 -2.712,5.883 -3.921,8.397c-3.51,-0.795 -5.294,-1.165 -8.691,-1.865l1.721,-3.698l2.35,-4.994Z" style="fill:#d00;fill-rule:nonzero;"/><path d="M386.337,341.464c-2.784,-0.33 -5.518,-0.712 -8.351,-1.082c-3.313,-0.445 -5.544,-0.818 -8.586,-1.121c-0.63,1.461 -0.953,2.247 -1.698,3.891c-0.624,1.371 -1.446,2.672 -2.067,3.78c2.014,0.281 3.558,0.521 5.772,0.752c2.393,0.2 3.258,0.277 5.193,0.154c1.905,-0.172 3.298,-0.545 4.992,-1.869c1.096,-0.883 2.838,-2.658 4.745,-4.505Z" style="fill:#ffc709;fill-rule:nonzero;"/><path d="M367.139,343.212c-3.027,-0.706 -5.744,-1.278 -8.94,-1.917c-0.761,1.834 -1.058,2.67 -1.707,4.559c-0.676,1.904 -1.241,3.626 -1.86,5.438c1.517,0.409 2.082,0.536 3.779,0.755c1.372,0.101 2.653,-0.046 3.645,-0.841c0.794,-0.572 1.925,-2.309 2.987,-4.17c0.803,-1.432 1.36,-2.303 2.096,-3.824Z" style="fill:#ffc709;fill-rule:nonzero;"/><path d="M275.203,328.455c0.725,2.015 2.302,4.583 3.329,6.751c0.437,0.836 1.853,3.797 2.881,6.504" style="fill:none;stroke:#ffc709;stroke-width:0.47px;"/><path d="M262.17,326.325c1.689,2.64 3.268,5.061 5.075,7.649c1.303,1.897 2.116,3.743 2.951,5.649" style="fill:none;stroke:#ffc709;stroke-width:0.47px;"/><path d="M377.488,326.6c-1.689,2.638 -3.231,4.786 -5.037,7.374c-1.302,1.897 -2.117,3.743 -2.952,5.649" style="fill:none;stroke:#ffc709;stroke-width:0.47px;"/><path d="M364.482,328.262c-0.723,2.015 -2.301,4.779 -3.329,6.947c-0.437,0.836 -1.853,3.797 -2.88,6.504" style="fill:none;stroke:#ffc709;stroke-width:0.47px;"/><path d="M234.86,321.608c-0.278,0.422 -0.094,1.068 0.121,1.458c0.182,0.33 0.786,1.119 1.603,1.234c6.171,0.243 10.142,0.165 16.52,-1.059c6.737,-1.593 12.804,-3.094 19.618,-5.642c4.009,-1.445 8.785,-3.493 11.653,-4.275c3.606,-0.971 7.132,-1.58 8.387,-0.049c0.901,1.41 -2.094,3.066 -5.116,4.068c-3.512,1.065 -6.818,1.612 -10.351,2.076c-3.73,0.683 -7.688,1.427 -11.024,2.442c-2.087,0.675 -4.474,2.374 -4.217,3.859c0.432,1.941 3.197,1.387 5.662,0.571l16.354,-6.244c1.864,-0.68 3.866,-0.451 4.287,0.55c0.37,1.024 0.076,2.443 -2.439,2.949l-7.83,1.322c-2.779,0.504 -3.089,2.523 -2.879,3.25c0.234,0.758 1.363,1.817 4.708,1.019c7.681,-1.88 13.037,-4.55 17.998,-6.077c12.092,-4.105 14.341,-4.415 21.92,-4.445c7.312,0.015 9.629,0.267 21.945,4.445c4.962,1.527 10.318,4.197 17.998,6.077c3.345,0.798 4.437,-0.379 4.669,-1.136c0.211,-0.728 -0.178,-2.317 -2.838,-3.133l-7.83,-1.322c-2.514,-0.506 -2.809,-1.925 -2.44,-2.949c0.422,-1.001 2.422,-1.23 4.287,-0.55l16.354,6.244c2.466,0.816 5.348,1.449 5.781,-0.492c0.257,-1.485 -1.662,-3.145 -4.337,-3.938c-3.336,-1.015 -7.294,-1.759 -11.022,-2.442c-3.534,-0.464 -6.838,-1.011 -10.351,-2.076c-3.024,-1.002 -6.018,-2.619 -5.156,-4.068c1.452,-1.571 5.055,-0.961 8.426,0.049c2.868,0.782 7.645,2.83 11.655,4.275c6.813,2.548 12.879,4.049 19.617,5.642c6.376,1.224 10.348,1.302 16.52,1.059c0.817,-0.115 1.421,-0.904 1.603,-1.234c0.215,-0.39 0.399,-1.036 0.12,-1.458" style="fill:none;stroke:#ffc709;stroke-width:0.75px;"/></g></g></g></svg>