<?xml version="1.0" encoding="UTF-8" standalone="no"?><!DOCTYPE svg PUBLIC "-//W3C//DTD SVG 1.1//EN" "http://www.w3.org/Graphics/SVG/1.1/DTD/svg11.dtd"><svg width="100%" height="100%" viewBox="0 0 640 480" version="1.1" xmlns="http://www.w3.org/2000/svg" xmlns:xlink="http://www.w3.org/1999/xlink" xml:space="preserve" xmlns:serif="http://www.serif.com/" style="fill-rule:evenodd;clip-rule:evenodd;stroke-linejoin:round;stroke-miterlimit:1.41421;"><rect id="path2" x="0" y="0" width="640" height="480" style="fill:#bc0000;"/><g><g><path id="path11728" d="M125.981,22l-7.856,24.178l-25.421,0l20.566,14.942l-7.855,24.177l20.566,-14.942l20.567,14.942l-7.857,-24.177l20.568,-14.942l-25.422,0l-7.856,-24.178Zm0,12.596l5.027,15.474l16.271,0l-13.163,9.563l5.028,15.474l-13.163,-9.563l-13.162,9.563l5.028,-15.474l-13.163,-9.563l16.269,0l5.028,-15.474Z" style="fill:#ffd700;fill-rule:nonzero;"/><path id="rect4165-6" d="M69.809,148.602l17.412,17.488l16.421,-16.266c24.978,26.719 51.175,52.476 75.96,79.298c3.723,3.741 9.782,3.761 13.533,0.047c3.749,-3.715 3.771,-9.759 0.047,-13.498c-26.603,-25.035 -53.287,-50.272 -79.899,-75.398l22.123,-21.911l-30.776,-4.25l-34.821,34.49Z" style="fill:#ffd700;fill-rule:nonzero;"/><path id="path4179-3" d="M125.981,91.98c14.324,8.047 25.199,19.593 31.615,31.665c6.502,12.236 9.359,25.009 9.419,35.22c0.119,20.941 -17.02,37.918 -38.016,37.918c-11.202,0 -21.274,-4.833 -28.231,-12.523l-3.848,3.231c-0.655,-0.25 -1.351,-0.379 -2.054,-0.379c-1.689,0 -3.291,0.741 -4.383,2.027c-2.745,0.358 -5.043,2.251 -5.912,4.871c-2.895,5.791 -7.972,10.332 -14.116,12.41c-0.059,0.02 -0.11,0.045 -0.163,0.072c-2.839,1.038 -5.688,2.913 -8.112,5.342c-4.792,4.822 -7.135,10.991 -5.816,15.319c-0.131,0.377 -0.197,0.771 -0.198,1.169c0,1.999 1.624,3.619 3.628,3.619c0.502,-0.001 0.997,-0.108 1.456,-0.31c4.332,0.975 10.217,-1.423 14.82,-6.038c2.609,-2.626 4.563,-5.73 5.523,-8.776c2.138,-6.098 6.736,-11.065 12.575,-13.859c0.14,-0.067 0.253,-0.136 0.352,-0.206c1.959,-0.933 3.392,-2.696 3.901,-4.8c8.957,10.538 22.388,17.266 37.403,17.618c27.54,0.647 48.125,-19.572 49.076,-48.646c0.479,-14.633 -5.197,-33.499 -18.13,-48.973c-9.885,-11.825 -24.38,-21.644 -40.789,-25.971Z" style="fill:#ffd700;fill-rule:nonzero;"/></g></g></svg>